<svg xmlns="http://www.w3.org/2000/svg" xmlns:xlink="http://www.w3.org/1999/xlink" contentStyleType="text/css" height="993px" preserveAspectRatio="none" style="width:1743px;height:993px;background:#FFFFFF;" version="1.1" viewBox="0 0 1743 993" width="1743px" zoomAndPan="magnify"><defs/><g><!--cluster Spring Application--><g id="cluster_Spring Application"><path d="M505.8,162.3082 L581.0648,162.3082 A2.25,2.25 0 0 1 582.5648,163.8082 L586.7648,177.1588 L1606.2,177.1588 A1.5,1.5 0 0 1 1607.7,178.6588 L1607.7,786.9742 A1.5,1.5 0 0 1 1606.2,788.4742 L505.8,788.4742 A1.5,1.5 0 0 1 504.3,786.9742 L504.3,163.8082 A1.5,1.5 0 0 1 505.8,162.3082 " fill="#90EE90" style="stroke:#000000;stroke-width:0.8999999999999999;"/><line style="stroke:#000000;stroke-width:0.8999999999999999;" x1="504.3" x2="586.7648" y1="177.1588" y2="177.1588"/><text fill="#000000" font-family="sans-serif" font-size="8.4" font-weight="bold" lengthAdjust="spacing" textLength="74.6648" x="506.7" y="172.6506">Spring Application</text></g><!--cluster index--><g id="cluster_index"><path d="M1003.2,3.6082 L1025.7393,3.6082 A2.25,2.25 0 0 1 1027.2393,5.1082 L1031.4393,18.4588 L1211.4,18.4588 A1.5,1.5 0 0 1 1212.9,19.9588 L1212.9,130.2082 A1.5,1.5 0 0 1 1211.4,131.7082 L1003.2,131.7082 A1.5,1.5 0 0 1 1001.7,130.2082 L1001.7,5.1082 A1.5,1.5 0 0 1 1003.2,3.6082 " fill="none" style="stroke:#000000;stroke-width:0.8999999999999999;"/><line style="stroke:#000000;stroke-width:0.8999999999999999;" x1="1001.7" x2="1031.4393" y1="18.4588" y2="18.4588"/><text fill="#000000" font-family="sans-serif" font-size="8.4" font-weight="bold" lengthAdjust="spacing" textLength="21.9393" x="1004.1" y="13.9506">index</text></g><!--cluster Solace JCSMP API--><g id="cluster_Solace JCSMP API"><path d="M18,595.9702 L93.2936,595.9702 A2.25,2.25 0 0 1 94.7936,597.4702 L98.9936,610.8208 L488.4,610.8208 A1.5,1.5 0 0 1 489.9,612.3208 L489.9,897.4762 A1.5,1.5 0 0 1 488.4,898.9762 L18,898.9762 A1.5,1.5 0 0 1 16.5,897.4762 L16.5,597.4702 A1.5,1.5 0 0 1 18,595.9702 " fill="#ADD8E6" style="stroke:#000000;stroke-width:0.8999999999999999;"/><line style="stroke:#000000;stroke-width:0.8999999999999999;" x1="16.5" x2="98.9936" y1="610.8208" y2="610.8208"/><text fill="#000000" font-family="sans-serif" font-size="8.4" font-weight="bold" lengthAdjust="spacing" textLength="74.6936" x="18.9" y="606.3126">Solace JCSMP API</text></g><!--class SolaceConfig--><g id="elem_SolaceConfig"><rect codeLine="11" fill="#F1F1F1" height="107.5541" id="SolaceConfig" rx="1.5" ry="1.5" style="stroke:#181818;stroke-width:0.3;" width="213.9926" x="513.702" y="184.5082"/><ellipse cx="593.1657" cy="194.1082" fill="#ADD1B2" rx="6.6" ry="6.6" style="stroke:#181818;stroke-width:0.6;"/><path d="M594.825,191.6332 Q594.9188,191.502 595.0313,191.4363 Q595.1438,191.3707 595.275,191.3707 Q595.5,191.3707 595.6407,191.5301 Q595.7813,191.6801 595.7813,192.0457 L595.7813,192.9176 Q595.7813,193.2832 595.6407,193.4426 Q595.5,193.602 595.275,193.602 Q595.0688,193.602 594.9469,193.4801 Q594.825,193.3676 594.7594,193.0582 Q594.7313,192.8426 594.6188,192.7301 Q594.4219,192.5051 594.0563,192.3738 Q593.6907,192.2426 593.3157,192.2426 Q592.8563,192.2426 592.4719,192.4395 Q592.0969,192.6363 591.7969,193.0863 Q591.5063,193.5363 591.5063,194.1551 L591.5063,194.8113 Q591.5063,195.552 592.0407,196.0488 Q592.575,196.5363 593.5313,196.5363 Q594.0938,196.5363 594.4875,196.3863 Q594.7219,196.2926 594.975,196.0301 Q595.1344,195.8707 595.2188,195.8238 Q595.3125,195.777 595.4344,195.777 Q595.6313,195.777 595.7813,195.9363 Q595.9407,196.0863 595.9407,196.2926 Q595.9407,196.4988 595.7344,196.7426 Q595.4344,197.0895 594.9563,197.2863 Q594.3094,197.5582 593.5313,197.5582 Q592.6219,197.5582 591.9,197.1832 Q591.3094,196.8832 590.8969,196.2457 Q590.4844,195.5988 590.4844,194.8301 L590.4844,194.1363 Q590.4844,193.3395 590.85,192.6551 Q591.225,191.9613 591.8813,191.5957 Q592.5375,191.2207 593.2782,191.2207 Q593.7188,191.2207 594.1032,191.3238 Q594.4969,191.4176 594.825,191.6332 Z " fill="#000000"/><text fill="#000000" font-family="sans-serif" font-size="8.4" lengthAdjust="spacing" textLength="49.9652" x="605.4657" y="197.6253">SolaceConfig</text><line style="stroke:#181818;stroke-width:0.3;" x1="514.302" x2="727.0946" y1="203.7082" y2="203.7082"/><rect fill="none" height="3.6" style="stroke:#C82930;stroke-width:0.6;" width="3.6" x="518.502" y="210.8335"/><text fill="#000000" font-family="sans-serif" font-size="8.4" lengthAdjust="spacing" textLength="65.8301" x="525.702" y="215.2506">String solaceHost</text><rect fill="none" height="3.6" style="stroke:#C82930;stroke-width:0.6;" width="3.6" x="518.502" y="222.0841"/><text fill="#000000" font-family="sans-serif" font-size="8.4" lengthAdjust="spacing" textLength="55.0922" x="525.702" y="226.5012">String msgVpn</text><rect fill="none" height="3.6" style="stroke:#C82930;stroke-width:0.6;" width="3.6" x="518.502" y="233.3347"/><text fill="#000000" font-family="sans-serif" font-size="8.4" lengthAdjust="spacing" textLength="87.3059" x="525.702" y="237.7518">String solaceUsername</text><rect fill="none" height="3.6" style="stroke:#C82930;stroke-width:0.6;" width="3.6" x="518.502" y="244.5853"/><text fill="#000000" font-family="sans-serif" font-size="8.4" lengthAdjust="spacing" textLength="85.4396" x="525.702" y="249.0023">String solacePassword</text><rect fill="none" height="3.6" style="stroke:#C82930;stroke-width:0.6;" width="3.6" x="518.502" y="255.8358"/><text fill="#000000" font-family="sans-serif" font-size="8.4" lengthAdjust="spacing" textLength="106.4396" x="525.702" y="260.2529">JCSMPProperties properties</text><line style="stroke:#181818;stroke-width:0.3;" x1="514.302" x2="727.0946" y1="264.7611" y2="264.7611"/><ellipse cx="520.302" cy="273.6864" fill="#84BE84" rx="1.8" ry="1.8" style="stroke:#038048;stroke-width:0.6;"/><text fill="#000000" font-family="sans-serif" font-size="8.4" lengthAdjust="spacing" textLength="198.3926" x="525.702" y="276.3035">JCSMPSession initJSCMPSession(): JCSMPSession</text><ellipse cx="520.302" cy="284.937" fill="#84BE84" rx="1.8" ry="1.8" style="stroke:#038048;stroke-width:0.6;"/><text fill="#000000" font-family="sans-serif" font-size="8.4" lengthAdjust="spacing" textLength="158.2711" x="525.702" y="287.5541">void setIgnoreDuplicateSubscriptionError()</text></g><!--class WebSocketConfig--><g id="elem_WebSocketConfig"><rect codeLine="22" fill="#F1F1F1" height="51.3012" id="WebSocketConfig" rx="1.5" ry="1.5" style="stroke:#181818;stroke-width:0.3;" width="303.665" x="1122.27" y="483.1702"/><ellipse cx="1237.9361" cy="492.7702" fill="#ADD1B2" rx="6.6" ry="6.6" style="stroke:#181818;stroke-width:0.6;"/><path d="M1239.5955,490.2952 Q1239.6892,490.164 1239.8017,490.0983 Q1239.9142,490.0327 1240.0455,490.0327 Q1240.2705,490.0327 1240.4111,490.1921 Q1240.5517,490.3421 1240.5517,490.7077 L1240.5517,491.5796 Q1240.5517,491.9452 1240.4111,492.1046 Q1240.2705,492.264 1240.0455,492.264 Q1239.8392,492.264 1239.7174,492.1421 Q1239.5955,492.0296 1239.5299,491.7202 Q1239.5017,491.5046 1239.3892,491.3921 Q1239.1924,491.1671 1238.8267,491.0358 Q1238.4611,490.9046 1238.0861,490.9046 Q1237.6267,490.9046 1237.2424,491.1015 Q1236.8674,491.2983 1236.5674,491.7483 Q1236.2767,492.1983 1236.2767,492.8171 L1236.2767,493.4733 Q1236.2767,494.214 1236.8111,494.7108 Q1237.3455,495.1983 1238.3017,495.1983 Q1238.8642,495.1983 1239.258,495.0483 Q1239.4924,494.9546 1239.7455,494.6921 Q1239.9049,494.5327 1239.9892,494.4858 Q1240.083,494.439 1240.2049,494.439 Q1240.4017,494.439 1240.5517,494.5983 Q1240.7111,494.7483 1240.7111,494.9546 Q1240.7111,495.1608 1240.5049,495.4046 Q1240.2049,495.7515 1239.7267,495.9483 Q1239.0799,496.2202 1238.3017,496.2202 Q1237.3924,496.2202 1236.6705,495.8452 Q1236.0799,495.5452 1235.6674,494.9077 Q1235.2549,494.2608 1235.2549,493.4921 L1235.2549,492.7983 Q1235.2549,492.0015 1235.6205,491.3171 Q1235.9955,490.6233 1236.6517,490.2577 Q1237.308,489.8827 1238.0486,489.8827 Q1238.4892,489.8827 1238.8736,489.9858 Q1239.2674,490.0796 1239.5955,490.2952 Z " fill="#000000"/><text fill="#000000" font-family="sans-serif" font-size="8.4" lengthAdjust="spacing" textLength="67.2328" x="1250.2361" y="496.2873">WebSocketConfig</text><line style="stroke:#181818;stroke-width:0.3;" x1="1122.87" x2="1425.335" y1="502.3702" y2="502.3702"/><line style="stroke:#181818;stroke-width:0.3;" x1="1122.87" x2="1425.335" y1="507.1702" y2="507.1702"/><ellipse cx="1128.87" cy="516.0955" fill="#84BE84" rx="1.8" ry="1.8" style="stroke:#038048;stroke-width:0.6;"/><text fill="#000000" font-family="sans-serif" font-size="8.4" lengthAdjust="spacing" textLength="288.065" x="1134.27" y="518.7126">WebSocketConfig(MessageWebSocketHandler messageWebSocketHandler)</text><ellipse cx="1128.87" cy="527.3461" fill="#84BE84" rx="1.8" ry="1.8" style="stroke:#038048;stroke-width:0.6;"/><text fill="#000000" font-family="sans-serif" font-size="8.4" lengthAdjust="spacing" textLength="260.9619" x="1134.27" y="529.9632">void registerWebSocketHandlers(WebSocketHandlerRegistry registry)</text></g><g id="elem_GMN6"><path d="M1446.648,500.5942 L1446.648,506.4202 L1426.194,508.8202 L1446.648,511.2202 L1446.648,517.0412 A0,0 0 0 0 1446.648,517.0412 L1598.3493,517.0412 A0,0 0 0 0 1598.3493,517.0412 L1598.3493,506.5942 L1592.3493,500.5942 L1446.648,500.5942 A0,0 0 0 0 1446.648,500.5942 " fill="#FEFFDD" style="stroke:#181818;stroke-width:0.3;"/><path d="M1592.3493,500.5942 L1592.3493,506.5942 L1598.3493,506.5942 L1592.3493,500.5942 " fill="#FEFFDD" style="stroke:#181818;stroke-width:0.3;"/><text fill="#000000" font-family="sans-serif" font-size="7.8" lengthAdjust="spacing" textLength="139.1013" x="1450.248" y="512.0836">&#49828;&#54532;&#47553; &#50937;&#49548;&#53011;&#51004;&#47196; &#50937;&#54168;&#51060;&#51648;&#50752; &#50672;&#44208;&#52376;&#47532;</text></g><!--class MessageWebSocketHandler--><g id="elem_MessageWebSocketHandler"><rect codeLine="31" fill="#F1F1F1" height="40.0506" id="MessageWebSocketHandler" rx="1.5" ry="1.5" style="stroke:#181818;stroke-width:0.3;" width="220.7273" x="1163.736" y="635.0482"/><ellipse cx="1218.3237" cy="644.6482" fill="#ADD1B2" rx="6.6" ry="6.6" style="stroke:#181818;stroke-width:0.6;"/><path d="M1219.9831,642.1732 Q1220.0768,642.042 1220.1893,641.9763 Q1220.3018,641.9107 1220.4331,641.9107 Q1220.6581,641.9107 1220.7987,642.0701 Q1220.9393,642.2201 1220.9393,642.5857 L1220.9393,643.4576 Q1220.9393,643.8232 1220.7987,643.9826 Q1220.6581,644.142 1220.4331,644.142 Q1220.2268,644.142 1220.1049,644.0201 Q1219.9831,643.9076 1219.9174,643.5982 Q1219.8893,643.3826 1219.7768,643.2701 Q1219.5799,643.0451 1219.2143,642.9138 Q1218.8487,642.7826 1218.4737,642.7826 Q1218.0143,642.7826 1217.6299,642.9795 Q1217.2549,643.1763 1216.9549,643.6263 Q1216.6643,644.0763 1216.6643,644.6951 L1216.6643,645.3513 Q1216.6643,646.092 1217.1987,646.5888 Q1217.7331,647.0763 1218.6893,647.0763 Q1219.2518,647.0763 1219.6456,646.9263 Q1219.8799,646.8326 1220.1331,646.5701 Q1220.2924,646.4107 1220.3768,646.3638 Q1220.4706,646.317 1220.5924,646.317 Q1220.7893,646.317 1220.9393,646.4763 Q1221.0987,646.6263 1221.0987,646.8326 Q1221.0987,647.0388 1220.8924,647.2826 Q1220.5924,647.6295 1220.1143,647.8263 Q1219.4674,648.0982 1218.6893,648.0982 Q1217.7799,648.0982 1217.0581,647.7232 Q1216.4674,647.4232 1216.0549,646.7857 Q1215.6424,646.1388 1215.6424,645.3701 L1215.6424,644.6763 Q1215.6424,643.8795 1216.0081,643.1951 Q1216.3831,642.5013 1217.0393,642.1357 Q1217.6956,641.7607 1218.4362,641.7607 Q1218.8768,641.7607 1219.2612,641.8638 Q1219.6549,641.9576 1219.9831,642.1732 Z " fill="#000000"/><text fill="#000000" font-family="sans-serif" font-size="8.4" lengthAdjust="spacing" textLength="106.452" x="1230.6237" y="648.1653">MessageWebSocketHandler</text><line style="stroke:#181818;stroke-width:0.3;" x1="1164.336" x2="1383.8633" y1="654.2482" y2="654.2482"/><line style="stroke:#181818;stroke-width:0.3;" x1="1164.336" x2="1383.8633" y1="659.0482" y2="659.0482"/><ellipse cx="1170.336" cy="667.9735" fill="#84BE84" rx="1.8" ry="1.8" style="stroke:#038048;stroke-width:0.6;"/><text fill="#000000" font-family="sans-serif" font-size="8.4" lengthAdjust="spacing" textLength="205.1273" x="1175.736" y="670.5906">void broadcast(String message) ' &#50937;&#54168;&#51060;&#51648; &#47700;&#49464;&#51648; &#51204;&#49569;</text></g><g id="elem_GMN10"><path d="M1185.126,762.4222 L1185.126,778.8692 A0,0 0 0 0 1185.126,778.8692 L1363.0799,778.8692 A0,0 0 0 0 1363.0799,778.8692 L1363.0799,768.4222 L1357.0799,762.4222 L1276.5,762.4222 L1274.1,675.3322 L1271.7,762.4222 L1185.126,762.4222 A0,0 0 0 0 1185.126,762.4222 " fill="#FEFFDD" style="stroke:#181818;stroke-width:0.3;"/><path d="M1357.0799,762.4222 L1357.0799,768.4222 L1363.0799,768.4222 L1357.0799,762.4222 " fill="#FEFFDD" style="stroke:#181818;stroke-width:0.3;"/><text fill="#000000" font-family="sans-serif" font-size="7.8" lengthAdjust="spacing" textLength="165.3539" x="1188.726" y="773.9116">&#47700;&#49464;&#51648; &#50937;&#54168;&#51060;&#51648; &#51204;&#49569;(WebSocket -&gt; broadcast)</text></g><!--class PublisherController--><g id="elem_PublisherController"><rect codeLine="38" fill="#F1F1F1" height="73.8023" id="PublisherController" rx="1.5" ry="1.5" style="stroke:#181818;stroke-width:0.3;" width="220.0875" x="748.854" y="201.3862"/><ellipse cx="820.6313" cy="210.9862" fill="#ADD1B2" rx="6.6" ry="6.6" style="stroke:#181818;stroke-width:0.6;"/><path d="M822.2907,208.5112 Q822.3845,208.38 822.497,208.3143 Q822.6095,208.2487 822.7407,208.2487 Q822.9657,208.2487 823.1063,208.4081 Q823.247,208.5581 823.247,208.9237 L823.247,209.7956 Q823.247,210.1612 823.1063,210.3206 Q822.9657,210.48 822.7407,210.48 Q822.5345,210.48 822.4126,210.3581 Q822.2907,210.2456 822.2251,209.9362 Q822.197,209.7206 822.0845,209.6081 Q821.8876,209.3831 821.522,209.2518 Q821.1563,209.1206 820.7813,209.1206 Q820.322,209.1206 819.9376,209.3175 Q819.5626,209.5143 819.2626,209.9643 Q818.972,210.4143 818.972,211.0331 L818.972,211.6893 Q818.972,212.43 819.5063,212.9268 Q820.0407,213.4143 820.997,213.4143 Q821.5595,213.4143 821.9532,213.2643 Q822.1876,213.1706 822.4407,212.9081 Q822.6001,212.7487 822.6845,212.7018 Q822.7782,212.655 822.9001,212.655 Q823.097,212.655 823.247,212.8143 Q823.4063,212.9643 823.4063,213.1706 Q823.4063,213.3768 823.2001,213.6206 Q822.9001,213.9675 822.422,214.1643 Q821.7751,214.4362 820.997,214.4362 Q820.0876,214.4362 819.3657,214.0612 Q818.7751,213.7612 818.3626,213.1237 Q817.9501,212.4768 817.9501,211.7081 L817.9501,211.0143 Q817.9501,210.2175 818.3157,209.5331 Q818.6907,208.8393 819.347,208.4737 Q820.0032,208.0987 820.7438,208.0987 Q821.1845,208.0987 821.5688,208.2018 Q821.9626,208.2956 822.2907,208.5112 Z " fill="#000000"/><text fill="#000000" font-family="sans-serif" font-size="8.4" lengthAdjust="spacing" textLength="71.4328" x="832.9313" y="214.5033">PublisherController</text><line style="stroke:#181818;stroke-width:0.3;" x1="749.454" x2="968.3415" y1="220.5862" y2="220.5862"/><rect fill="none" height="3.6" style="stroke:#C82930;stroke-width:0.6;" width="3.6" x="753.654" y="227.7115"/><text fill="#000000" font-family="sans-serif" font-size="8.4" lengthAdjust="spacing" textLength="127.4602" x="760.854" y="232.1286">PublisherService publisherService</text><line style="stroke:#181818;stroke-width:0.3;" x1="749.454" x2="968.3415" y1="236.6368" y2="236.6368"/><ellipse cx="755.454" cy="245.5621" fill="#84BE84" rx="1.8" ry="1.8" style="stroke:#038048;stroke-width:0.6;"/><text fill="#000000" font-family="sans-serif" font-size="8.4" lengthAdjust="spacing" textLength="204.4875" x="760.854" y="248.1792">PublisherController(PublisherService publisherService)</text><ellipse cx="755.454" cy="256.8127" fill="#84BE84" rx="1.8" ry="1.8" style="stroke:#038048;stroke-width:0.6;"/><text fill="#000000" font-family="sans-serif" font-size="8.4" lengthAdjust="spacing" textLength="93.8396" x="760.854" y="259.4298">String connect() &#171;POST&#187;</text><ellipse cx="755.454" cy="268.0633" fill="#84BE84" rx="1.8" ry="1.8" style="stroke:#038048;stroke-width:0.6;"/><text fill="#000000" font-family="sans-serif" font-size="8.4" lengthAdjust="spacing" textLength="188.6268" x="760.854" y="270.6803">String publish(Map&lt;String, Object&gt; body) &#171;POST&#187;</text></g><!--class SubscriberController--><g id="elem_SubscriberController"><rect codeLine="45" fill="#F1F1F1" height="73.8023" id="SubscriberController" rx="1.5" ry="1.5" style="stroke:#181818;stroke-width:0.3;" width="235.009" x="989.796" y="201.3862"/><ellipse cx="1066.4686" cy="210.9862" fill="#ADD1B2" rx="6.6" ry="6.6" style="stroke:#181818;stroke-width:0.6;"/><path d="M1068.1279,208.5112 Q1068.2217,208.38 1068.3342,208.3143 Q1068.4467,208.2487 1068.5779,208.2487 Q1068.8029,208.2487 1068.9436,208.4081 Q1069.0842,208.5581 1069.0842,208.9237 L1069.0842,209.7956 Q1069.0842,210.1612 1068.9436,210.3206 Q1068.8029,210.48 1068.5779,210.48 Q1068.3717,210.48 1068.2498,210.3581 Q1068.1279,210.2456 1068.0623,209.9362 Q1068.0342,209.7206 1067.9217,209.6081 Q1067.7248,209.3831 1067.3592,209.2518 Q1066.9936,209.1206 1066.6186,209.1206 Q1066.1592,209.1206 1065.7748,209.3175 Q1065.3998,209.5143 1065.0998,209.9643 Q1064.8092,210.4143 1064.8092,211.0331 L1064.8092,211.6893 Q1064.8092,212.43 1065.3436,212.9268 Q1065.8779,213.4143 1066.8342,213.4143 Q1067.3967,213.4143 1067.7904,213.2643 Q1068.0248,213.1706 1068.2779,212.9081 Q1068.4373,212.7487 1068.5217,212.7018 Q1068.6154,212.655 1068.7373,212.655 Q1068.9342,212.655 1069.0842,212.8143 Q1069.2436,212.9643 1069.2436,213.1706 Q1069.2436,213.3768 1069.0373,213.6206 Q1068.7373,213.9675 1068.2592,214.1643 Q1067.6123,214.4362 1066.8342,214.4362 Q1065.9248,214.4362 1065.2029,214.0612 Q1064.6123,213.7612 1064.1998,213.1237 Q1063.7873,212.4768 1063.7873,211.7081 L1063.7873,211.0143 Q1063.7873,210.2175 1064.1529,209.5331 Q1064.5279,208.8393 1065.1842,208.4737 Q1065.8404,208.0987 1066.5811,208.0987 Q1067.0217,208.0987 1067.4061,208.2018 Q1067.7998,208.2956 1068.1279,208.5112 Z " fill="#000000"/><text fill="#000000" font-family="sans-serif" font-size="8.4" lengthAdjust="spacing" textLength="76.5639" x="1078.7686" y="214.5033">SubscriberController</text><line style="stroke:#181818;stroke-width:0.3;" x1="990.396" x2="1224.205" y1="220.5862" y2="220.5862"/><rect fill="none" height="3.6" style="stroke:#C82930;stroke-width:0.6;" width="3.6" x="994.596" y="227.7115"/><text fill="#000000" font-family="sans-serif" font-size="8.4" lengthAdjust="spacing" textLength="137.2506" x="1001.796" y="232.1286">SubscriberService subscriberService</text><line style="stroke:#181818;stroke-width:0.3;" x1="990.396" x2="1224.205" y1="236.6368" y2="236.6368"/><ellipse cx="996.396" cy="245.5621" fill="#84BE84" rx="1.8" ry="1.8" style="stroke:#038048;stroke-width:0.6;"/><text fill="#000000" font-family="sans-serif" font-size="8.4" lengthAdjust="spacing" textLength="219.409" x="1001.796" y="248.1792">SubscriberController(SubscriberService subscriberService)</text><ellipse cx="996.396" cy="256.8127" fill="#84BE84" rx="1.8" ry="1.8" style="stroke:#038048;stroke-width:0.6;"/><text fill="#000000" font-family="sans-serif" font-size="8.4" lengthAdjust="spacing" textLength="93.8396" x="1001.796" y="259.4298">String connect() &#171;POST&#187;</text><ellipse cx="996.396" cy="268.0633" fill="#84BE84" rx="1.8" ry="1.8" style="stroke:#038048;stroke-width:0.6;"/><text fill="#000000" font-family="sans-serif" font-size="8.4" lengthAdjust="spacing" textLength="197.9578" x="1001.796" y="270.6803">String subscribe(Map&lt;String, Object&gt; body) &#171;POST&#187;</text></g><!--class PublisherService--><g id="elem_PublisherService"><rect codeLine="52" fill="#F1F1F1" height="73.8023" id="PublisherService" rx="1.5" ry="1.5" style="stroke:#181818;stroke-width:0.3;" width="213.5619" x="656.118" y="339.4642"/><ellipse cx="728.8346" cy="349.0642" fill="#ADD1B2" rx="6.6" ry="6.6" style="stroke:#181818;stroke-width:0.6;"/><path d="M730.494,346.5892 Q730.5877,346.458 730.7002,346.3923 Q730.8127,346.3267 730.944,346.3267 Q731.169,346.3267 731.3096,346.4861 Q731.4502,346.6361 731.4502,347.0017 L731.4502,347.8736 Q731.4502,348.2392 731.3096,348.3986 Q731.169,348.558 730.944,348.558 Q730.7377,348.558 730.6159,348.4361 Q730.494,348.3236 730.4284,348.0142 Q730.4002,347.7986 730.2877,347.6861 Q730.0909,347.4611 729.7252,347.3298 Q729.3596,347.1986 728.9846,347.1986 Q728.5252,347.1986 728.1409,347.3955 Q727.7659,347.5923 727.4659,348.0423 Q727.1752,348.4923 727.1752,349.1111 L727.1752,349.7673 Q727.1752,350.508 727.7096,351.0048 Q728.244,351.4923 729.2002,351.4923 Q729.7627,351.4923 730.1565,351.3423 Q730.3909,351.2486 730.644,350.9861 Q730.8034,350.8267 730.8877,350.7798 Q730.9815,350.733 731.1034,350.733 Q731.3002,350.733 731.4502,350.8923 Q731.6096,351.0423 731.6096,351.2486 Q731.6096,351.4548 731.4034,351.6986 Q731.1034,352.0455 730.6252,352.2423 Q729.9784,352.5142 729.2002,352.5142 Q728.2909,352.5142 727.569,352.1392 Q726.9784,351.8392 726.5659,351.2017 Q726.1534,350.5548 726.1534,349.7861 L726.1534,349.0923 Q726.1534,348.2955 726.519,347.6111 Q726.894,346.9173 727.5502,346.5517 Q728.2065,346.1767 728.9471,346.1767 Q729.3877,346.1767 729.7721,346.2798 Q730.1659,346.3736 730.494,346.5892 Z " fill="#000000"/><text fill="#000000" font-family="sans-serif" font-size="8.4" lengthAdjust="spacing" textLength="63.0287" x="741.1346" y="352.5813">PublisherService</text><line style="stroke:#181818;stroke-width:0.3;" x1="656.718" x2="869.0799" y1="358.6642" y2="358.6642"/><rect fill="none" height="3.6" style="stroke:#C82930;stroke-width:0.6;" width="3.6" x="660.918" y="365.7895"/><text fill="#000000" font-family="sans-serif" font-size="8.4" lengthAdjust="spacing" textLength="71.441" x="668.118" y="370.2066">Publisher publisher</text><line style="stroke:#181818;stroke-width:0.3;" x1="656.718" x2="869.0799" y1="374.7148" y2="374.7148"/><ellipse cx="662.718" cy="383.6401" fill="#84BE84" rx="1.8" ry="1.8" style="stroke:#038048;stroke-width:0.6;"/><text fill="#000000" font-family="sans-serif" font-size="8.4" lengthAdjust="spacing" textLength="140.0643" x="668.118" y="386.2572">PublisherService(Publisher publisher)</text><ellipse cx="662.718" cy="394.8907" fill="#84BE84" rx="1.8" ry="1.8" style="stroke:#038048;stroke-width:0.6;"/><text fill="#000000" font-family="sans-serif" font-size="8.4" lengthAdjust="spacing" textLength="59.2922" x="668.118" y="397.5078">String connect()</text><ellipse cx="662.718" cy="406.1413" fill="#84BE84" rx="1.8" ry="1.8" style="stroke:#038048;stroke-width:0.6;"/><text fill="#000000" font-family="sans-serif" font-size="8.4" lengthAdjust="spacing" textLength="197.9619" x="668.118" y="408.7583">String publish(String topic, String message, int count)</text></g><!--class SubscriberService--><g id="elem_SubscriberService"><rect codeLine="59" fill="#F1F1F1" height="73.8023" id="SubscriberService" rx="1.5" ry="1.5" style="stroke:#181818;stroke-width:0.3;" width="170.5857" x="978.21" y="339.4642"/><ellipse cx="1026.873" cy="349.0642" fill="#ADD1B2" rx="6.6" ry="6.6" style="stroke:#181818;stroke-width:0.6;"/><path d="M1028.5324,346.5892 Q1028.6261,346.458 1028.7386,346.3923 Q1028.8511,346.3267 1028.9824,346.3267 Q1029.2074,346.3267 1029.348,346.4861 Q1029.4886,346.6361 1029.4886,347.0017 L1029.4886,347.8736 Q1029.4886,348.2392 1029.348,348.3986 Q1029.2074,348.558 1028.9824,348.558 Q1028.7761,348.558 1028.6542,348.4361 Q1028.5324,348.3236 1028.4667,348.0142 Q1028.4386,347.7986 1028.3261,347.6861 Q1028.1292,347.4611 1027.7636,347.3298 Q1027.398,347.1986 1027.023,347.1986 Q1026.5636,347.1986 1026.1792,347.3955 Q1025.8042,347.5923 1025.5042,348.0423 Q1025.2136,348.4923 1025.2136,349.1111 L1025.2136,349.7673 Q1025.2136,350.508 1025.748,351.0048 Q1026.2824,351.4923 1027.2386,351.4923 Q1027.8011,351.4923 1028.1949,351.3423 Q1028.4292,351.2486 1028.6824,350.9861 Q1028.8417,350.8267 1028.9261,350.7798 Q1029.0199,350.733 1029.1417,350.733 Q1029.3386,350.733 1029.4886,350.8923 Q1029.648,351.0423 1029.648,351.2486 Q1029.648,351.4548 1029.4417,351.6986 Q1029.1417,352.0455 1028.6636,352.2423 Q1028.0167,352.5142 1027.2386,352.5142 Q1026.3292,352.5142 1025.6074,352.1392 Q1025.0167,351.8392 1024.6042,351.2017 Q1024.1917,350.5548 1024.1917,349.7861 L1024.1917,349.0923 Q1024.1917,348.2955 1024.5574,347.6111 Q1024.9324,346.9173 1025.5886,346.5517 Q1026.2449,346.1767 1026.9855,346.1767 Q1027.4261,346.1767 1027.8105,346.2798 Q1028.2042,346.3736 1028.5324,346.5892 Z " fill="#000000"/><text fill="#000000" font-family="sans-serif" font-size="8.4" lengthAdjust="spacing" textLength="68.1598" x="1039.173" y="352.5813">SubscriberService</text><line style="stroke:#181818;stroke-width:0.3;" x1="978.81" x2="1148.1957" y1="358.6642" y2="358.6642"/><rect fill="none" height="3.6" style="stroke:#C82930;stroke-width:0.6;" width="3.6" x="983.01" y="365.7895"/><text fill="#000000" font-family="sans-serif" font-size="8.4" lengthAdjust="spacing" textLength="81.2314" x="990.21" y="370.2066">Subscriber subscriber</text><line style="stroke:#181818;stroke-width:0.3;" x1="978.81" x2="1148.1957" y1="374.7148" y2="374.7148"/><ellipse cx="984.81" cy="383.6401" fill="#84BE84" rx="1.8" ry="1.8" style="stroke:#038048;stroke-width:0.6;"/><text fill="#000000" font-family="sans-serif" font-size="8.4" lengthAdjust="spacing" textLength="154.9857" x="990.21" y="386.2572">SubscriberService(Subscriber subscriber)</text><ellipse cx="984.81" cy="394.8907" fill="#84BE84" rx="1.8" ry="1.8" style="stroke:#038048;stroke-width:0.6;"/><text fill="#000000" font-family="sans-serif" font-size="8.4" lengthAdjust="spacing" textLength="59.2922" x="990.21" y="397.5078">String connect()</text><ellipse cx="984.81" cy="406.1413" fill="#84BE84" rx="1.8" ry="1.8" style="stroke:#038048;stroke-width:0.6;"/><text fill="#000000" font-family="sans-serif" font-size="8.4" lengthAdjust="spacing" textLength="107.8424" x="990.21" y="408.7583">String subscribe(String topic)</text></g><!--class Publisher--><g id="elem_Publisher"><rect codeLine="66" fill="#00BFFF" height="85.0529" id="Publisher" rx="1.5" ry="1.5" style="stroke:#181818;stroke-width:0.3;" width="231.9492" x="513.726" y="466.2922"/><ellipse cx="609.641" cy="475.8922" fill="#ADD1B2" rx="6.6" ry="6.6" style="stroke:#181818;stroke-width:0.6;"/><path d="M611.3004,473.4172 Q611.3942,473.286 611.5067,473.2203 Q611.6192,473.1547 611.7504,473.1547 Q611.9754,473.1547 612.116,473.3141 Q612.2567,473.4641 612.2567,473.8297 L612.2567,474.7016 Q612.2567,475.0672 612.116,475.2266 Q611.9754,475.386 611.7504,475.386 Q611.5442,475.386 611.4223,475.2641 Q611.3004,475.1516 611.2348,474.8422 Q611.2067,474.6266 611.0942,474.5141 Q610.8973,474.2891 610.5317,474.1578 Q610.166,474.0266 609.791,474.0266 Q609.3317,474.0266 608.9473,474.2235 Q608.5723,474.4203 608.2723,474.8703 Q607.9817,475.3203 607.9817,475.9391 L607.9817,476.5953 Q607.9817,477.336 608.516,477.8328 Q609.0504,478.3203 610.0067,478.3203 Q610.5692,478.3203 610.9629,478.1703 Q611.1973,478.0766 611.4504,477.8141 Q611.6098,477.6547 611.6942,477.6078 Q611.7879,477.561 611.9098,477.561 Q612.1067,477.561 612.2567,477.7203 Q612.416,477.8703 612.416,478.0766 Q612.416,478.2828 612.2098,478.5266 Q611.9098,478.8735 611.4317,479.0703 Q610.7848,479.3422 610.0067,479.3422 Q609.0973,479.3422 608.3754,478.9672 Q607.7848,478.6672 607.3723,478.0297 Q606.9598,477.3828 606.9598,476.6141 L606.9598,475.9203 Q606.9598,475.1235 607.3254,474.4391 Q607.7004,473.7453 608.3567,473.3797 Q609.0129,473.0047 609.7535,473.0047 Q610.1942,473.0047 610.5785,473.1078 Q610.9723,473.2016 611.3004,473.4172 Z " fill="#000000"/><text fill="#000000" font-family="sans-serif" font-size="8.4" lengthAdjust="spacing" textLength="35.0191" x="621.941" y="479.4093">Publisher</text><line style="stroke:#181818;stroke-width:0.3;" x1="514.326" x2="745.0752" y1="485.4922" y2="485.4922"/><rect fill="none" height="3.6" style="stroke:#C82930;stroke-width:0.6;" width="3.6" x="518.526" y="492.6175"/><text fill="#000000" font-family="sans-serif" font-size="8.4" lengthAdjust="spacing" textLength="89.168" x="525.726" y="497.0346">JCSMPSession session</text><rect fill="none" height="3.6" style="stroke:#C82930;stroke-width:0.6;" width="3.6" x="518.526" y="503.8681"/><text fill="#000000" font-family="sans-serif" font-size="8.4" lengthAdjust="spacing" textLength="216.3492" x="525.726" y="508.2852">XMLMessageProducer producer ' Solace &#49569;&#49888;&#50857; &#54532;&#47196;&#46272;&#49436;</text><line style="stroke:#181818;stroke-width:0.3;" x1="514.326" x2="745.0752" y1="512.7934" y2="512.7934"/><ellipse cx="520.326" cy="521.7187" fill="#84BE84" rx="1.8" ry="1.8" style="stroke:#038048;stroke-width:0.6;"/><text fill="#000000" font-family="sans-serif" font-size="8.4" lengthAdjust="spacing" textLength="129.7816" x="525.726" y="524.3358">Publisher(JCSMPSession session)</text><ellipse cx="520.326" cy="532.9693" fill="#84BE84" rx="1.8" ry="1.8" style="stroke:#038048;stroke-width:0.6;"/><text fill="#000000" font-family="sans-serif" font-size="8.4" lengthAdjust="spacing" textLength="52.7584" x="525.726" y="535.5863">void connect()</text><ellipse cx="520.326" cy="544.2198" fill="#84BE84" rx="1.8" ry="1.8" style="stroke:#038048;stroke-width:0.6;"/><text fill="#000000" font-family="sans-serif" font-size="8.4" lengthAdjust="spacing" textLength="155.0063" x="525.726" y="546.8369">void publish(String topic, String message)</text></g><!--class Subscriber--><g id="elem_Subscriber"><rect codeLine="74" fill="#00BFFF" height="96.3035" id="Subscriber" rx="1.5" ry="1.5" style="stroke:#181818;stroke-width:0.3;" width="334.4719" x="766.662" y="460.6642"/><ellipse cx="911.2728" cy="470.2642" fill="#ADD1B2" rx="6.6" ry="6.6" style="stroke:#181818;stroke-width:0.6;"/><path d="M912.9322,467.7892 Q913.026,467.658 913.1385,467.5923 Q913.251,467.5267 913.3822,467.5267 Q913.6072,467.5267 913.7478,467.6861 Q913.8885,467.8361 913.8885,468.2017 L913.8885,469.0736 Q913.8885,469.4392 913.7478,469.5986 Q913.6072,469.758 913.3822,469.758 Q913.176,469.758 913.0541,469.6361 Q912.9322,469.5236 912.8666,469.2142 Q912.8385,468.9986 912.726,468.8861 Q912.5291,468.6611 912.1635,468.5298 Q911.7978,468.3986 911.4228,468.3986 Q910.9635,468.3986 910.5791,468.5955 Q910.2041,468.7923 909.9041,469.2423 Q909.6135,469.6923 909.6135,470.3111 L909.6135,470.9673 Q909.6135,471.708 910.1478,472.2048 Q910.6822,472.6923 911.6385,472.6923 Q912.201,472.6923 912.5947,472.5423 Q912.8291,472.4486 913.0822,472.1861 Q913.2416,472.0267 913.326,471.9798 Q913.4197,471.933 913.5416,471.933 Q913.7385,471.933 913.8885,472.0923 Q914.0478,472.2423 914.0478,472.4486 Q914.0478,472.6548 913.8416,472.8986 Q913.5416,473.2455 913.0635,473.4423 Q912.4166,473.7142 911.6385,473.7142 Q910.7291,473.7142 910.0072,473.3392 Q909.4166,473.0392 909.0041,472.4017 Q908.5916,471.7548 908.5916,470.9861 L908.5916,470.2923 Q908.5916,469.4955 908.9572,468.8111 Q909.3322,468.1173 909.9885,467.7517 Q910.6447,467.3767 911.3853,467.3767 Q911.826,467.3767 912.2103,467.4798 Q912.6041,467.5736 912.9322,467.7892 Z " fill="#000000"/><text fill="#000000" font-family="sans-serif" font-size="8.4" lengthAdjust="spacing" textLength="40.1502" x="923.5728" y="473.7813">Subscriber</text><line style="stroke:#181818;stroke-width:0.3;" x1="767.262" x2="1100.5339" y1="479.8642" y2="479.8642"/><rect fill="none" height="3.6" style="stroke:#C82930;stroke-width:0.6;" width="3.6" x="771.462" y="486.9895"/><text fill="#000000" font-family="sans-serif" font-size="8.4" lengthAdjust="spacing" textLength="89.168" x="778.662" y="491.4066">JCSMPSession session</text><rect fill="none" height="3.6" style="stroke:#C82930;stroke-width:0.6;" width="3.6" x="771.462" y="498.2401"/><text fill="#000000" font-family="sans-serif" font-size="8.4" lengthAdjust="spacing" textLength="216.341" x="778.662" y="502.6572">XMLMessageConsumer consumer ' Solace &#49688;&#49888;&#50857; &#52968;&#49800;&#47672;</text><rect fill="none" height="3.6" style="stroke:#C82930;stroke-width:0.6;" width="3.6" x="771.462" y="509.4907"/><text fill="#000000" font-family="sans-serif" font-size="8.4" lengthAdjust="spacing" textLength="179.2916" x="778.662" y="513.9078">MessageWebSocketHandler webSocketHandler</text><line style="stroke:#181818;stroke-width:0.3;" x1="767.262" x2="1100.5339" y1="518.416" y2="518.416"/><ellipse cx="773.262" cy="527.3413" fill="#84BE84" rx="1.8" ry="1.8" style="stroke:#038048;stroke-width:0.6;"/><text fill="#000000" font-family="sans-serif" font-size="8.4" lengthAdjust="spacing" textLength="318.8719" x="778.662" y="529.9583">Subscriber(JCSMPSession session, MessageWebSocketHandler webSocketHandler)</text><ellipse cx="773.262" cy="538.5918" fill="#84BE84" rx="1.8" ry="1.8" style="stroke:#038048;stroke-width:0.6;"/><text fill="#000000" font-family="sans-serif" font-size="8.4" lengthAdjust="spacing" textLength="52.7584" x="778.662" y="541.2089">void connect()</text><ellipse cx="773.262" cy="549.8424" fill="#84BE84" rx="1.8" ry="1.8" style="stroke:#038048;stroke-width:0.6;"/><text fill="#000000" font-family="sans-serif" font-size="8.4" lengthAdjust="spacing" textLength="173.3895" x="778.662" y="552.4595">void subscribe(String topic) 'broker&#47196;&#48512;&#53552; &#44396;&#46021;</text></g><!--class html--><g id="elem_html"><rect codeLine="87" fill="#FFB6C1" height="96.3035" id="html" rx="1.5" ry="1.5" style="stroke:#181818;stroke-width:0.3;" width="192.4881" x="1011.054" y="25.8082"/><ellipse cx="1096.8136" cy="35.4082" fill="#ADD1B2" rx="6.6" ry="6.6" style="stroke:#181818;stroke-width:0.6;"/><path d="M1098.4729,32.9332 Q1098.5667,32.802 1098.6792,32.7363 Q1098.7917,32.6707 1098.9229,32.6707 Q1099.1479,32.6707 1099.2886,32.8301 Q1099.4292,32.9801 1099.4292,33.3457 L1099.4292,34.2176 Q1099.4292,34.5832 1099.2886,34.7426 Q1099.1479,34.902 1098.9229,34.902 Q1098.7167,34.902 1098.5948,34.7801 Q1098.4729,34.6676 1098.4073,34.3582 Q1098.3792,34.1426 1098.2667,34.0301 Q1098.0698,33.8051 1097.7042,33.6738 Q1097.3386,33.5426 1096.9636,33.5426 Q1096.5042,33.5426 1096.1198,33.7395 Q1095.7448,33.9363 1095.4448,34.3863 Q1095.1542,34.8363 1095.1542,35.4551 L1095.1542,36.1113 Q1095.1542,36.852 1095.6886,37.3488 Q1096.2229,37.8363 1097.1792,37.8363 Q1097.7417,37.8363 1098.1354,37.6863 Q1098.3698,37.5926 1098.6229,37.3301 Q1098.7823,37.1707 1098.8667,37.1238 Q1098.9604,37.077 1099.0823,37.077 Q1099.2792,37.077 1099.4292,37.2363 Q1099.5886,37.3863 1099.5886,37.5926 Q1099.5886,37.7988 1099.3823,38.0426 Q1099.0823,38.3895 1098.6042,38.5863 Q1097.9573,38.8582 1097.1792,38.8582 Q1096.2698,38.8582 1095.5479,38.4832 Q1094.9573,38.1832 1094.5448,37.5457 Q1094.1323,36.8988 1094.1323,36.1301 L1094.1323,35.4363 Q1094.1323,34.6395 1094.4979,33.9551 Q1094.8729,33.2613 1095.5292,32.8957 Q1096.1854,32.5207 1096.9261,32.5207 Q1097.3667,32.5207 1097.7511,32.6238 Q1098.1448,32.7176 1098.4729,32.9332 Z " fill="#000000"/><text fill="#000000" font-family="sans-serif" font-size="8.4" lengthAdjust="spacing" textLength="15.8689" x="1109.1136" y="38.9253">html</text><line style="stroke:#181818;stroke-width:0.3;" x1="1011.654" x2="1202.9421" y1="45.0082" y2="45.0082"/><ellipse cx="1017.654" cy="53.9335" fill="none" rx="1.8" ry="1.8" style="stroke:#038048;stroke-width:0.6;"/><text fill="#000000" font-family="sans-serif" font-size="8.4" lengthAdjust="spacing" textLength="125.0689" x="1023.054" y="56.5506">HTTP GET / : &#47700;&#51064; &#54168;&#51060;&#51648; &#47116;&#45908;&#47553;</text><ellipse cx="1017.654" cy="65.1841" fill="none" rx="1.8" ry="1.8" style="stroke:#038048;stroke-width:0.6;"/><text fill="#000000" font-family="sans-serif" font-size="8.4" lengthAdjust="spacing" textLength="168.9803" x="1023.054" y="67.8012">HTTP POST /publisher/connect : &#44172;&#49884;&#51088; &#50672;&#44208;</text><ellipse cx="1017.654" cy="76.4347" fill="none" rx="1.8" ry="1.8" style="stroke:#038048;stroke-width:0.6;"/><text fill="#000000" font-family="sans-serif" font-size="8.4" lengthAdjust="spacing" textLength="166.1789" x="1023.054" y="79.0518">HTTP POST /publisher/publish : &#47700;&#49884;&#51648; &#48156;&#54665;</text><ellipse cx="1017.654" cy="87.6853" fill="none" rx="1.8" ry="1.8" style="stroke:#038048;stroke-width:0.6;"/><text fill="#000000" font-family="sans-serif" font-size="8.4" lengthAdjust="spacing" textLength="173.6396" x="1023.054" y="90.3023">HTTP POST /subscriber/connect : &#44396;&#46021;&#51088; &#50672;&#44208;</text><ellipse cx="1017.654" cy="98.9358" fill="none" rx="1.8" ry="1.8" style="stroke:#038048;stroke-width:0.6;"/><text fill="#000000" font-family="sans-serif" font-size="8.4" lengthAdjust="spacing" textLength="171.7693" x="1023.054" y="101.5529">HTTP POST /subscriber/subscribe : &#44396;&#46021; &#50836;&#52397;</text><ellipse cx="1017.654" cy="110.1864" fill="none" rx="1.8" ry="1.8" style="stroke:#038048;stroke-width:0.6;"/><text fill="#000000" font-family="sans-serif" font-size="8.4" lengthAdjust="spacing" textLength="176.8881" x="1023.054" y="112.8035">WebSocket &#49688;&#49888; &#47700;&#49884;&#51648; &#52376;&#47532; : &#49892;&#49884;&#44036; &#50629;&#45936;&#51060;&#53944;</text><line style="stroke:#181818;stroke-width:0.3;" x1="1011.654" x2="1202.9421" y1="117.3117" y2="117.3117"/></g><!--class JCSMPSession--><g id="elem_JCSMPSession"><rect codeLine="96" fill="#F1F1F1" height="73.8023" id="JCSMPSession" rx="1.5" ry="1.5" style="stroke:#181818;stroke-width:0.3;" width="198.14" x="26.028" y="618.1702"/><ellipse cx="93.3716" cy="627.7702" fill="#ADD1B2" rx="6.6" ry="6.6" style="stroke:#181818;stroke-width:0.6;"/><path d="M95.0309,625.2952 Q95.1247,625.164 95.2372,625.0983 Q95.3497,625.0327 95.4809,625.0327 Q95.7059,625.0327 95.8466,625.1921 Q95.9872,625.3421 95.9872,625.7077 L95.9872,626.5796 Q95.9872,626.9452 95.8466,627.1046 Q95.7059,627.264 95.4809,627.264 Q95.2747,627.264 95.1528,627.1421 Q95.0309,627.0296 94.9653,626.7202 Q94.9372,626.5046 94.8247,626.3921 Q94.6278,626.1671 94.2622,626.0358 Q93.8966,625.9046 93.5216,625.9046 Q93.0622,625.9046 92.6778,626.1015 Q92.3028,626.2983 92.0028,626.7483 Q91.7122,627.1983 91.7122,627.8171 L91.7122,628.4733 Q91.7122,629.214 92.2466,629.7108 Q92.7809,630.1983 93.7372,630.1983 Q94.2997,630.1983 94.6934,630.0483 Q94.9278,629.9546 95.1809,629.6921 Q95.3403,629.5327 95.4247,629.4858 Q95.5184,629.439 95.6403,629.439 Q95.8372,629.439 95.9872,629.5983 Q96.1466,629.7483 96.1466,629.9546 Q96.1466,630.1608 95.9403,630.4046 Q95.6403,630.7515 95.1622,630.9483 Q94.5153,631.2202 93.7372,631.2202 Q92.8278,631.2202 92.1059,630.8452 Q91.5153,630.5452 91.1028,629.9077 Q90.6903,629.2608 90.6903,628.4921 L90.6903,627.7983 Q90.6903,627.0015 91.0559,626.3171 Q91.4309,625.6233 92.0872,625.2577 Q92.7434,624.8827 93.4841,624.8827 Q93.9247,624.8827 94.3091,624.9858 Q94.7028,625.0796 95.0309,625.2952 Z " fill="#000000"/><text fill="#000000" font-family="sans-serif" font-size="8.4" lengthAdjust="spacing" textLength="58.3529" x="105.6716" y="631.2873">JCSMPSession</text><line style="stroke:#181818;stroke-width:0.3;" x1="26.628" x2="223.568" y1="637.3702" y2="637.3702"/><line style="stroke:#181818;stroke-width:0.3;" x1="26.628" x2="223.568" y1="642.1702" y2="642.1702"/><ellipse cx="32.628" cy="651.0955" fill="#84BE84" rx="1.8" ry="1.8" style="stroke:#038048;stroke-width:0.6;"/><text fill="#000000" font-family="sans-serif" font-size="8.4" lengthAdjust="spacing" textLength="52.7584" x="38.028" y="653.7126">void connect()</text><ellipse cx="32.628" cy="662.3461" fill="#84BE84" rx="1.8" ry="1.8" style="stroke:#038048;stroke-width:0.6;"/><text fill="#000000" font-family="sans-serif" font-size="8.4" lengthAdjust="spacing" textLength="63.4963" x="38.028" y="664.9632">void disconnect()</text><ellipse cx="32.628" cy="673.5967" fill="#84BE84" rx="1.8" ry="1.8" style="stroke:#038048;stroke-width:0.6;"/><text fill="#000000" font-family="sans-serif" font-size="8.4" lengthAdjust="spacing" textLength="173.2131" x="38.028" y="676.2138">XMLMessageProducer getMessageProducer()</text><ellipse cx="32.628" cy="684.8473" fill="#84BE84" rx="1.8" ry="1.8" style="stroke:#038048;stroke-width:0.6;"/><text fill="#000000" font-family="sans-serif" font-size="8.4" lengthAdjust="spacing" textLength="182.54" x="38.028" y="687.4643">XMLMessageConsumer getMessageConsumer()</text></g><!--class XMLMessageProducer--><g id="elem_XMLMessageProducer"><rect codeLine="103" fill="#F1F1F1" height="40.0506" id="XMLMessageProducer" rx="1.5" ry="1.5" style="stroke:#181818;stroke-width:0.3;" width="144.9264" x="282.438" y="750.6262"/><ellipse cx="309.6314" cy="760.2262" fill="#ADD1B2" rx="6.6" ry="6.6" style="stroke:#181818;stroke-width:0.6;"/><path d="M311.2907,757.7512 Q311.3845,757.62 311.497,757.5543 Q311.6095,757.4887 311.7407,757.4887 Q311.9657,757.4887 312.1064,757.6481 Q312.247,757.7981 312.247,758.1637 L312.247,759.0356 Q312.247,759.4012 312.1064,759.5606 Q311.9657,759.72 311.7407,759.72 Q311.5345,759.72 311.4126,759.5981 Q311.2907,759.4856 311.2251,759.1762 Q311.197,758.9606 311.0845,758.8481 Q310.8876,758.6231 310.522,758.4918 Q310.1564,758.3606 309.7814,758.3606 Q309.322,758.3606 308.9376,758.5575 Q308.5626,758.7543 308.2626,759.2043 Q307.972,759.6543 307.972,760.2731 L307.972,760.9293 Q307.972,761.67 308.5064,762.1668 Q309.0407,762.6543 309.997,762.6543 Q310.5595,762.6543 310.9532,762.5043 Q311.1876,762.4106 311.4407,762.1481 Q311.6001,761.9887 311.6845,761.9418 Q311.7782,761.895 311.9001,761.895 Q312.097,761.895 312.247,762.0543 Q312.4064,762.2043 312.4064,762.4106 Q312.4064,762.6168 312.2001,762.8606 Q311.9001,763.2075 311.422,763.4043 Q310.7751,763.6762 309.997,763.6762 Q309.0876,763.6762 308.3657,763.3012 Q307.7751,763.0012 307.3626,762.3637 Q306.9501,761.7168 306.9501,760.9481 L306.9501,760.2543 Q306.9501,759.4575 307.3157,758.7731 Q307.6907,758.0793 308.347,757.7137 Q309.0032,757.3387 309.7439,757.3387 Q310.1845,757.3387 310.5689,757.4418 Q310.9626,757.5356 311.2907,757.7512 Z " fill="#000000"/><text fill="#000000" font-family="sans-serif" font-size="8.4" lengthAdjust="spacing" textLength="85.4396" x="321.9314" y="763.7433">XMLMessageProducer</text><line style="stroke:#181818;stroke-width:0.3;" x1="283.038" x2="426.7644" y1="769.8262" y2="769.8262"/><line style="stroke:#181818;stroke-width:0.3;" x1="283.038" x2="426.7644" y1="774.6262" y2="774.6262"/><ellipse cx="289.038" cy="783.5515" fill="#84BE84" rx="1.8" ry="1.8" style="stroke:#038048;stroke-width:0.6;"/><text fill="#000000" font-family="sans-serif" font-size="8.4" lengthAdjust="spacing" textLength="129.3264" x="294.438" y="786.1686">void send(XMLMessage message)</text></g><!--class XMLMessageConsumer--><g id="elem_XMLMessageConsumer"><rect codeLine="107" fill="#F1F1F1" height="62.5518" id="XMLMessageConsumer" rx="1.5" ry="1.5" style="stroke:#181818;stroke-width:0.3;" width="235.0254" x="26.19" y="739.3702"/><ellipse cx="96.1011" cy="748.9702" fill="#ADD1B2" rx="6.6" ry="6.6" style="stroke:#181818;stroke-width:0.6;"/><path d="M97.7605,746.4952 Q97.8543,746.364 97.9668,746.2983 Q98.0793,746.2327 98.2105,746.2327 Q98.4355,746.2327 98.5761,746.3921 Q98.7168,746.5421 98.7168,746.9077 L98.7168,747.7796 Q98.7168,748.1452 98.5761,748.3046 Q98.4355,748.464 98.2105,748.464 Q98.0043,748.464 97.8824,748.3421 Q97.7605,748.2296 97.6949,747.9202 Q97.6668,747.7046 97.5543,747.5921 Q97.3574,747.3671 96.9918,747.2358 Q96.6261,747.1046 96.2511,747.1046 Q95.7918,747.1046 95.4074,747.3015 Q95.0324,747.4983 94.7324,747.9483 Q94.4418,748.3983 94.4418,749.0171 L94.4418,749.6733 Q94.4418,750.414 94.9761,750.9108 Q95.5105,751.3983 96.4668,751.3983 Q97.0293,751.3983 97.423,751.2483 Q97.6574,751.1546 97.9105,750.8921 Q98.0699,750.7327 98.1543,750.6858 Q98.248,750.639 98.3699,750.639 Q98.5668,750.639 98.7168,750.7983 Q98.8761,750.9483 98.8761,751.1546 Q98.8761,751.3608 98.6699,751.6046 Q98.3699,751.9515 97.8918,752.1483 Q97.2449,752.4202 96.4668,752.4202 Q95.5574,752.4202 94.8355,752.0452 Q94.2449,751.7452 93.8324,751.1077 Q93.4199,750.4608 93.4199,749.6921 L93.4199,748.9983 Q93.4199,748.2015 93.7855,747.5171 Q94.1605,746.8233 94.8168,746.4577 Q95.473,746.0827 96.2136,746.0827 Q96.6543,746.0827 97.0386,746.1858 Q97.4324,746.2796 97.7605,746.4952 Z " fill="#000000"/><text fill="#000000" font-family="sans-serif" font-size="8.4" lengthAdjust="spacing" textLength="90.1031" x="108.4011" y="752.4873">XMLMessageConsumer</text><line style="stroke:#181818;stroke-width:0.3;" x1="26.79" x2="260.6154" y1="758.5702" y2="758.5702"/><line style="stroke:#181818;stroke-width:0.3;" x1="26.79" x2="260.6154" y1="763.3702" y2="763.3702"/><ellipse cx="32.79" cy="772.2955" fill="#84BE84" rx="1.8" ry="1.8" style="stroke:#038048;stroke-width:0.6;"/><text fill="#000000" font-family="sans-serif" font-size="8.4" lengthAdjust="spacing" textLength="39.6744" x="38.19" y="774.9126">void start()</text><ellipse cx="32.79" cy="783.5461" fill="#84BE84" rx="1.8" ry="1.8" style="stroke:#038048;stroke-width:0.6;"/><text fill="#000000" font-family="sans-serif" font-size="8.4" lengthAdjust="spacing" textLength="39.215" x="38.19" y="786.1632">void stop()</text><text fill="#000000" font-family="sans-serif" font-size="8.4" lengthAdjust="spacing" textLength="219.4254" x="38.19" y="797.4138">XMLMessageListener onReceive(BytesXMLMessage msg)</text></g><!--class XMLMessageListener--><g id="elem_XMLMessageListener"><rect codeLine="113" fill="#F1F1F1" height="40.0506" id="XMLMessageListener" rx="1.5" ry="1.5" style="stroke:#181818;stroke-width:0.3;" width="169.1953" x="59.1" y="849.3262"/><ellipse cx="100.5278" cy="858.9262" fill="#ADD1B2" rx="6.6" ry="6.6" style="stroke:#181818;stroke-width:0.6;"/><path d="M102.1872,856.4512 Q102.281,856.32 102.3935,856.2543 Q102.506,856.1887 102.6372,856.1887 Q102.8622,856.1887 103.0028,856.3481 Q103.1435,856.4981 103.1435,856.8637 L103.1435,857.7356 Q103.1435,858.1012 103.0028,858.2606 Q102.8622,858.42 102.6372,858.42 Q102.431,858.42 102.3091,858.2981 Q102.1872,858.1856 102.1216,857.8762 Q102.0935,857.6606 101.981,857.5481 Q101.7841,857.3231 101.4185,857.1918 Q101.0528,857.0606 100.6778,857.0606 Q100.2185,857.0606 99.8341,857.2575 Q99.4591,857.4543 99.1591,857.9043 Q98.8685,858.3543 98.8685,858.9731 L98.8685,859.6293 Q98.8685,860.37 99.4028,860.8668 Q99.9372,861.3543 100.8935,861.3543 Q101.456,861.3543 101.8497,861.2043 Q102.0841,861.1106 102.3372,860.8481 Q102.4966,860.6887 102.581,860.6418 Q102.6747,860.595 102.7966,860.595 Q102.9935,860.595 103.1435,860.7543 Q103.3028,860.9043 103.3028,861.1106 Q103.3028,861.3168 103.0966,861.5606 Q102.7966,861.9075 102.3185,862.1043 Q101.6716,862.3762 100.8935,862.3762 Q99.9841,862.3762 99.2622,862.0012 Q98.6716,861.7012 98.2591,861.0637 Q97.8466,860.4168 97.8466,859.6481 L97.8466,858.9543 Q97.8466,858.1575 98.2122,857.4731 Q98.5872,856.7793 99.2435,856.4137 Q99.8997,856.0387 100.6403,856.0387 Q101.081,856.0387 101.4653,856.1418 Q101.8591,856.2356 102.1872,856.4512 Z " fill="#000000"/><text fill="#000000" font-family="sans-serif" font-size="8.4" lengthAdjust="spacing" textLength="81.2396" x="112.8278" y="862.4433">XMLMessageListener</text><line style="stroke:#181818;stroke-width:0.3;" x1="59.7" x2="227.6953" y1="868.5262" y2="868.5262"/><line style="stroke:#181818;stroke-width:0.3;" x1="59.7" x2="227.6953" y1="873.3262" y2="873.3262"/><ellipse cx="65.7" cy="882.2515" fill="#84BE84" rx="1.8" ry="1.8" style="stroke:#038048;stroke-width:0.6;"/><text fill="#000000" font-family="sans-serif" font-size="8.4" lengthAdjust="spacing" textLength="153.5953" x="71.1" y="884.8686">void onReceive(BytesXMLMessage msg)</text></g><!--class JCSMPFactory--><g id="elem_JCSMPFactory"><rect codeLine="117" fill="#F1F1F1" height="51.3012" id="JCSMPFactory" rx="1.5" ry="1.5" style="stroke:#181818;stroke-width:0.3;" width="235.4889" x="244.956" y="629.4202"/><ellipse cx="331.9132" cy="639.0202" fill="#ADD1B2" rx="6.6" ry="6.6" style="stroke:#181818;stroke-width:0.6;"/><path d="M333.5726,636.5452 Q333.6664,636.414 333.7789,636.3483 Q333.8914,636.2827 334.0226,636.2827 Q334.2476,636.2827 334.3882,636.4421 Q334.5289,636.5921 334.5289,636.9577 L334.5289,637.8296 Q334.5289,638.1952 334.3882,638.3546 Q334.2476,638.514 334.0226,638.514 Q333.8164,638.514 333.6945,638.3921 Q333.5726,638.2796 333.507,637.9702 Q333.4789,637.7546 333.3664,637.6421 Q333.1695,637.4171 332.8039,637.2858 Q332.4382,637.1546 332.0632,637.1546 Q331.6039,637.1546 331.2195,637.3515 Q330.8445,637.5483 330.5445,637.9983 Q330.2539,638.4483 330.2539,639.0671 L330.2539,639.7233 Q330.2539,640.464 330.7882,640.9608 Q331.3226,641.4483 332.2789,641.4483 Q332.8414,641.4483 333.2351,641.2983 Q333.4695,641.2046 333.7226,640.9421 Q333.882,640.7827 333.9664,640.7358 Q334.0601,640.689 334.182,640.689 Q334.3789,640.689 334.5289,640.8483 Q334.6882,640.9983 334.6882,641.2046 Q334.6882,641.4108 334.482,641.6546 Q334.182,642.0015 333.7039,642.1983 Q333.057,642.4702 332.2789,642.4702 Q331.3695,642.4702 330.6476,642.0952 Q330.057,641.7952 329.6445,641.1577 Q329.232,640.5108 329.232,639.7421 L329.232,639.0483 Q329.232,638.2515 329.5976,637.5671 Q329.9726,636.8733 330.6289,636.5077 Q331.2851,636.1327 332.0257,636.1327 Q332.4664,636.1327 332.8507,636.2358 Q333.2445,636.3296 333.5726,636.5452 Z " fill="#000000"/><text fill="#000000" font-family="sans-serif" font-size="8.4" lengthAdjust="spacing" textLength="56.4744" x="344.2132" y="642.5373">JCSMPFactory</text><line style="stroke:#181818;stroke-width:0.3;" x1="245.556" x2="479.8449" y1="648.6202" y2="648.6202"/><line style="stroke:#181818;stroke-width:0.3;" x1="245.556" x2="479.8449" y1="653.4202" y2="653.4202"/><ellipse cx="251.556" cy="662.3455" fill="#84BE84" rx="1.8" ry="1.8" style="stroke:#038048;stroke-width:0.6;"/><text fill="#000000" font-family="sans-serif" font-size="8.4" lengthAdjust="spacing" textLength="219.8889" x="256.956" y="664.9626">JCSMPSession createMessage(TextMessage textMesage)</text><ellipse cx="251.556" cy="673.5961" fill="#84BE84" rx="1.8" ry="1.8" style="stroke:#038048;stroke-width:0.6;"/><text fill="#000000" font-family="sans-serif" font-size="8.4" lengthAdjust="spacing" textLength="114.3762" x="256.956" y="676.2132">Topic createTopic(String topic)</text></g><!--class Solace Event Broker--><g id="elem_Solace Event Broker"><rect codeLine="3" fill="#ADD8E6" height="51.3012" id="Solace Event Broker" rx="1.5" ry="1.5" style="stroke:#181818;stroke-width:0.3;" width="118.3236" x="84.54" y="937.9762"/><ellipse cx="103.6882" cy="947.5762" fill="#ADD1B2" rx="6.6" ry="6.6" style="stroke:#181818;stroke-width:0.6;"/><path d="M105.3476,945.1012 Q105.4413,944.97 105.5538,944.9043 Q105.6663,944.8387 105.7976,944.8387 Q106.0226,944.8387 106.1632,944.9981 Q106.3038,945.1481 106.3038,945.5137 L106.3038,946.3856 Q106.3038,946.7512 106.1632,946.9106 Q106.0226,947.07 105.7976,947.07 Q105.5913,947.07 105.4695,946.9481 Q105.3476,946.8356 105.282,946.5262 Q105.2538,946.3106 105.1413,946.1981 Q104.9445,945.9731 104.5788,945.8418 Q104.2132,945.7106 103.8382,945.7106 Q103.3788,945.7106 102.9945,945.9075 Q102.6195,946.1043 102.3195,946.5543 Q102.0288,947.0043 102.0288,947.6231 L102.0288,948.2793 Q102.0288,949.02 102.5632,949.5168 Q103.0976,950.0043 104.0538,950.0043 Q104.6163,950.0043 105.0101,949.8543 Q105.2445,949.7606 105.4976,949.4981 Q105.657,949.3387 105.7413,949.2918 Q105.8351,949.245 105.957,949.245 Q106.1538,949.245 106.3038,949.4043 Q106.4632,949.5543 106.4632,949.7606 Q106.4632,949.9668 106.257,950.2106 Q105.957,950.5575 105.4788,950.7543 Q104.832,951.0262 104.0538,951.0262 Q103.1445,951.0262 102.4226,950.6512 Q101.832,950.3512 101.4195,949.7137 Q101.007,949.0668 101.007,948.2981 L101.007,947.6043 Q101.007,946.8075 101.3726,946.1231 Q101.7476,945.4293 102.4038,945.0637 Q103.0601,944.6887 103.8007,944.6887 Q104.2413,944.6887 104.6257,944.7918 Q105.0195,944.8856 105.3476,945.1012 Z " fill="#000000"/><text fill="#000000" font-family="sans-serif" font-size="8.4" lengthAdjust="spacing" textLength="76.5721" x="114.3434" y="951.0933">Solace Event Broker</text><line style="stroke:#181818;stroke-width:0.3;" x1="85.14" x2="202.2636" y1="957.1762" y2="957.1762"/><ellipse cx="91.14" cy="966.1015" fill="none" rx="1.8" ry="1.8" style="stroke:#038048;stroke-width:0.6;"/><text fill="#000000" font-family="sans-serif" font-size="8.4" lengthAdjust="spacing" textLength="92.9209" x="96.54" y="968.7186">Handle Message Publish</text><ellipse cx="91.14" cy="977.3521" fill="none" rx="1.8" ry="1.8" style="stroke:#038048;stroke-width:0.6;"/><text fill="#000000" font-family="sans-serif" font-size="8.4" lengthAdjust="spacing" textLength="102.7236" x="96.54" y="979.9692">Handle Message Subscribe</text><line style="stroke:#181818;stroke-width:0.3;" x1="85.14" x2="202.2636" y1="984.4774" y2="984.4774"/></g><!--link SolaceConfig to JCSMPSession--><g id="link_SolaceConfig_JCSMPSession"><path codeLine="124" d="M557.178,292.1542 C454.92,377.9002 259.1745,542.0451 171.4005,615.6471 " fill="none" id="SolaceConfig-to-JCSMPSession" style="stroke:#181818;stroke-width:0.6;"/><polygon fill="#181818" points="168.642,617.9602,174.3219,616.3295,170.9408,616.0326,171.2377,612.6515,168.642,617.9602" style="stroke:#181818;stroke-width:0.6;"/><text fill="#000000" font-family="sans-serif" font-size="7.8" lengthAdjust="spacing" textLength="152.9912" x="390.642" y="440.3536">&#44061;&#52404;Use &#49464;&#49496;&#52488;&#44592;&#54868;(application.yml &#49444;&#51221;&#44050;)</text><text fill="#000000" font-family="sans-serif" font-size="7.8" lengthAdjust="spacing" textLength="4.338" x="169.2419" y="611.3832">1</text></g><!--link WebSocketConfig to MessageWebSocketHandler--><g id="link_WebSocketConfig_MessageWebSocketHandler"><path codeLine="125" d="M1274.1,534.6862 C1274.1,563.1742 1274.1,605.3002 1274.1,631.2382 " fill="none" id="WebSocketConfig-to-MessageWebSocketHandler" style="stroke:#181818;stroke-width:0.6;"/><polygon fill="#181818" points="1274.1,634.8382,1276.5,629.4382,1274.1,631.8382,1271.7,629.4382,1274.1,634.8382" style="stroke:#181818;stroke-width:0.6;"/><text fill="#000000" font-family="sans-serif" font-size="7.8" lengthAdjust="spacing" textLength="16.476" x="1274.7" y="584.0596">uses</text><text fill="#000000" font-family="sans-serif" font-size="7.8" lengthAdjust="spacing" textLength="4.338" x="1269.5129" y="628.3216">1</text></g><!--link PublisherController to PublisherService--><g id="link_PublisherController_PublisherService"><path codeLine="126" d="M833.298,275.3902 C819.414,295.1902 804.3685,316.6324 790.4965,336.4204 " fill="none" id="PublisherController-to-PublisherService" style="stroke:#181818;stroke-width:0.6;"/><polygon fill="#181818" points="788.43,339.3682,793.495,336.3242,790.1521,336.9117,789.5646,333.5688,788.43,339.3682" style="stroke:#181818;stroke-width:0.6;"/><text fill="#000000" font-family="sans-serif" font-size="7.8" lengthAdjust="spacing" textLength="40.771" x="808.62" y="319.1536">depends on</text><text fill="#000000" font-family="sans-serif" font-size="7.8" lengthAdjust="spacing" textLength="4.338" x="786.9472" y="332.8044">1</text></g><!--link SubscriberController to SubscriberService--><g id="link_SubscriberController_SubscriberService"><path codeLine="127" d="M1095.618,275.3902 C1089.282,295.1902 1082.5729,316.1514 1076.2429,335.9394 " fill="none" id="SubscriberController-to-SubscriberService" style="stroke:#181818;stroke-width:0.6;"/><polygon fill="#181818" points="1075.146,339.3682,1079.0772,334.9562,1076.06,336.5108,1074.5054,333.4937,1075.146,339.3682" style="stroke:#181818;stroke-width:0.6;"/><text fill="#000000" font-family="sans-serif" font-size="7.8" lengthAdjust="spacing" textLength="40.771" x="1084.686" y="319.1536">depends on</text><text fill="#000000" font-family="sans-serif" font-size="7.8" lengthAdjust="spacing" textLength="4.338" x="1072.0574" y="332.8044">1</text></g><!--link Publisher to JCSMPSession--><g id="link_Publisher_JCSMPSession"><path codeLine="128" d="M513.594,523.3942 C433.296,535.4602 325.002,556.5502 234.3,591.1702 C215.874,598.2022 200.0118,606.2904 183.1638,616.1904 " fill="none" id="Publisher-to-JCSMPSession" style="stroke:#181818;stroke-width:0.6;"/><polygon fill="#181818" points="180.06,618.0142,185.9316,617.3477,182.6465,616.4944,183.4998,613.2093,180.06,618.0142" style="stroke:#181818;stroke-width:0.6;"/><text fill="#000000" font-family="sans-serif" font-size="7.8" lengthAdjust="spacing" textLength="61.9925" x="276.144" y="584.0596">Broker &#49464;&#49496; #blue</text><text fill="#000000" font-family="sans-serif" font-size="7.8" lengthAdjust="spacing" textLength="4.338" x="181.9801" y="611.4434">1</text></g><!--link Subscriber to JCSMPSession--><g id="link_Subscriber_JCSMPSession"><path codeLine="129" d="M766.452,554.7442 C763.044,555.5062 759.654,556.2502 756.3,556.9702 C676.788,574.0402 656.712,579.2482 575.7,586.3702 C556.806,588.0322 252.582,586.1182 234.3,591.1702 C213.918,596.8042 196.4617,605.3133 178.7857,616.0653 " fill="none" id="Subscriber-to-JCSMPSession" style="stroke:#181818;stroke-width:0.6;"/><polygon fill="#181818" points="175.71,617.9362,181.5708,617.1803,178.2731,616.3771,179.0763,613.0794,175.71,617.9362" style="stroke:#181818;stroke-width:0.6;"/><text fill="#000000" font-family="sans-serif" font-size="7.8" lengthAdjust="spacing" textLength="58.519" x="667.164" y="584.0596">Broker &#49464;&#49496; #red</text><text fill="#000000" font-family="sans-serif" font-size="7.8" lengthAdjust="spacing" textLength="4.338" x="177.1272" y="611.3564">1</text></g><!--link Publisher to JCSMPFactory--><g id="link_Publisher_JCSMPFactory"><path codeLine="130" d="M552.114,551.5702 C505.848,576.7042 451.8074,606.0658 412.4414,627.4498 " fill="none" id="Publisher-to-JCSMPFactory" style="stroke:#181818;stroke-width:0.6;"/><polygon fill="#181818" points="409.278,629.1682,415.1687,628.6996,411.9142,627.7362,412.8775,624.4817,409.278,629.1682" style="stroke:#181818;stroke-width:0.6;"/><text fill="#000000" font-family="sans-serif" font-size="7.8" lengthAdjust="spacing" textLength="65.4621" x="504.804" y="584.0596">Pub Message &#49373;&#49457;</text><text fill="#000000" font-family="sans-serif" font-size="7.8" lengthAdjust="spacing" textLength="4.338" x="411.8992" y="622.7292">1</text></g><!--link Subscriber to JCSMPFactory--><g id="link_Subscriber_JCSMPFactory"><path codeLine="131" d="M842.814,557.2342 C816.048,569.0362 786.222,580.0942 757.5,586.3702 C702.522,598.3822 559.224,578.9062 504.3,591.1702 C470.07,598.8142 437.2103,613.4079 410.0483,627.5259 " fill="none" id="Subscriber-to-JCSMPFactory" style="stroke:#181818;stroke-width:0.6;"/><polygon fill="#181818" points="406.854,629.1862,412.7523,628.8253,409.5159,627.8026,410.5386,624.5662,406.854,629.1862" style="stroke:#181818;stroke-width:0.6;"/><text fill="#000000" font-family="sans-serif" font-size="7.8" lengthAdjust="spacing" textLength="36.8405" x="793.464" y="584.0596">Topic &#49373;&#49457;</text><text fill="#000000" font-family="sans-serif" font-size="7.8" lengthAdjust="spacing" textLength="4.338" x="409.104" y="622.75">1</text></g><!--link Subscriber to MessageWebSocketHandler--><g id="link_Subscriber_MessageWebSocketHandler"><path codeLine="132" d="M1046.004,557.2162 C1107.858,583.5922 1178.0224,613.5063 1224.5344,633.3363 " fill="none" id="Subscriber-to-MessageWebSocketHandler" style="stroke:#181818;stroke-width:0.6;"/><polygon fill="#181818" points="1227.846,634.7482,1223.8199,630.4227,1225.0863,633.5716,1221.9374,634.8381,1227.846,634.7482" style="stroke:#181818;stroke-width:0.6;"/><text fill="#000000" font-family="sans-serif" font-size="7.8" lengthAdjust="spacing" textLength="108.7887" x="1114.8" y="584.0596">&#44396;&#46021;&#47700;&#49464;&#51648; &#50937;&#54168;&#51060;&#51648; broadcast</text><text fill="#000000" font-family="sans-serif" font-size="7.8" lengthAdjust="spacing" textLength="4.338" x="1214.4417" y="628.2144">1</text></g><!--link MessageWebSocketHandler to html--><g id="link_MessageWebSocketHandler_html"><path codeLine="133" d="M1384.602,646.0942 C1456.002,635.4262 1546.842,611.3062 1608.9,556.9702 C1626.282,541.7482 1629.9,532.5202 1629.9,509.4202 C1629.9,237.6862 1629.9,237.6862 1629.9,237.6862 C1629.9,149.4142 1358.3369,103.799 1207.3349,85.169 " fill="none" id="MessageWebSocketHandler-to-html" style="stroke:#181818;stroke-width:0.6;"/><polygon fill="#181818" points="1203.762,84.7282,1208.8275,87.7714,1206.7394,85.0955,1209.4152,83.0075,1203.762,84.7282" style="stroke:#181818;stroke-width:0.6;"/><text fill="#000000" font-family="sans-serif" font-size="7.8" lengthAdjust="spacing" textLength="107.9013" x="1630.5" y="379.7536">&#44396;&#46021;&#54620; &#47700;&#49464;&#51648; &#50937;&#54168;&#51060;&#51648;&#47196; &#51204;&#49569;</text></g><!--link PublisherService to Publisher--><g id="link_PublisherService_Publisher"><path codeLine="134" d="M725.796,413.5282 C709.248,429.8362 692.2163,446.6175 675.0503,463.5315 " fill="none" id="PublisherService-to-Publisher" style="stroke:#181818;stroke-width:0.6;"/><polygon fill="#181818" points="672.486,466.0582,678.017,463.9777,674.6229,463.9526,674.648,460.5586,672.486,466.0582" style="stroke:#181818;stroke-width:0.6;"/><text fill="#000000" font-family="sans-serif" font-size="7.8" lengthAdjust="spacing" textLength="40.771" x="704.874" y="440.3536">depends on</text><text fill="#000000" font-family="sans-serif" font-size="7.8" lengthAdjust="spacing" textLength="4.338" x="672.4888" y="459.4247">1</text></g><!--link SubscriberService to Subscriber--><g id="link_SubscriberService_Subscriber"><path codeLine="135" d="M1027.398,413.5282 C1013.016,428.0902 998.8052,442.4843 983.4932,457.9943 " fill="none" id="SubscriberService-to-Subscriber" style="stroke:#181818;stroke-width:0.6;"/><polygon fill="#181818" points="980.964,460.5562,986.4657,458.3995,983.0716,458.4213,983.0498,455.0273,980.964,460.5562" style="stroke:#181818;stroke-width:0.6;"/><text fill="#000000" font-family="sans-serif" font-size="7.8" lengthAdjust="spacing" textLength="40.771" x="1007.058" y="440.3536">depends on</text><text fill="#000000" font-family="sans-serif" font-size="7.8" lengthAdjust="spacing" textLength="4.338" x="980.9157" y="453.9378">1</text></g><!--link JCSMPSession to Solace Event Broker--><g id="link_JCSMPSession_Solace Event Broker"><path codeLine="136" d="M57.756,692.1442 C41.01,704.7442 25.2,720.5242 15.9,739.3702 C3.6,764.3062 11.562,774.4642 15.9,801.9262 C23.322,848.9242 19.62,866.2642 48.9,903.7762 C59.586,917.4682 71.3146,926.9516 86.0506,935.9396 " fill="none" id="JCSMPSession-to-Solace Event Broker" style="stroke:#181818;stroke-width:0.6;"/><polygon fill="#181818" points="89.124,937.8142,85.7636,932.9534,86.5628,936.252,83.2641,937.0513,89.124,937.8142" style="stroke:#181818;stroke-width:0.6;"/><text fill="#000000" font-family="sans-serif" font-size="7.8" lengthAdjust="spacing" textLength="68.9432" x="20.514" y="829.0156">connect, disconnect</text></g><!--link JCSMPSession to XMLMessageProducer--><g id="link_JCSMPSession_XMLMessageProducer"><path codeLine="137" d="M198.6,692.2522 C237.336,711.5362 280.103,732.8223 312.125,748.7583 " fill="none" id="JCSMPSession-to-XMLMessageProducer" style="stroke:#181818;stroke-width:0.6;"/><polygon fill="#181818" points="315.348,750.3622,311.5829,745.8077,312.6622,749.0256,309.4443,750.1049,315.348,750.3622" style="stroke:#181818;stroke-width:0.6;"/><text fill="#000000" font-family="sans-serif" font-size="7.8" lengthAdjust="spacing" textLength="57.2127" x="254.358" y="719.0596">&#47700;&#49464;&#51648; &#44172;&#49884; Pub</text></g><!--link JCSMPSession to XMLMessageConsumer--><g id="link_JCSMPSession_XMLMessageConsumer"><path codeLine="138" d="M131.034,692.1742 C133.494,707.2762 135.7305,721.0508 138.0825,735.5228 " fill="none" id="JCSMPSession-to-XMLMessageConsumer" style="stroke:#181818;stroke-width:0.6;"/><polygon fill="#181818" points="138.66,739.0762,140.1627,733.3611,138.1788,736.1151,135.4248,734.1311,138.66,739.0762" style="stroke:#181818;stroke-width:0.6;"/><text fill="#000000" font-family="sans-serif" font-size="7.8" lengthAdjust="spacing" textLength="57.2127" x="136.116" y="719.0596">&#47700;&#49464;&#51648; &#44396;&#46021; Sub</text></g><!--link XMLMessageConsumer to XMLMessageListener--><g id="link_XMLMessageConsumer_XMLMessageListener"><path codeLine="139" d="M143.7,802.1002 C143.7,817.4962 143.7,832.0642 143.7,845.5342 " fill="none" id="XMLMessageConsumer-to-XMLMessageListener" style="stroke:#181818;stroke-width:0.6;"/><polygon fill="#181818" points="143.7,849.1342,146.1,843.7342,143.7,846.1342,141.3,843.7342,143.7,849.1342" style="stroke:#181818;stroke-width:0.6;"/><text fill="#000000" font-family="sans-serif" font-size="7.8" lengthAdjust="spacing" textLength="31.638" x="144.3" y="829.0156">&#44061;&#52404; Use</text></g><!--link XMLMessageProducer to Solace Event Broker--><g id="link_XMLMessageProducer_Solace Event Broker"><path codeLine="140" d="M341.448,790.9402 C319.266,822.1162 272.166,883.0822 219.3,919.9762 C210.504,926.1142 203.8803,930.3401 194.4123,935.8721 " fill="none" id="XMLMessageProducer-to-Solace Event Broker" style="stroke:#181818;stroke-width:0.6;"/><polygon fill="#181818" points="191.304,937.6882,197.1772,937.0362,193.8943,936.1748,194.7557,932.8918,191.304,937.6882" style="stroke:#181818;stroke-width:0.6;"/><text fill="#000000" font-family="sans-serif" font-size="7.8" lengthAdjust="spacing" textLength="41.1671" x="295.524" y="872.7376">&#47700;&#49464;&#51648; &#44172;&#49884;</text></g><!--link XMLMessageListener to Solace Event Broker--><g id="link_XMLMessageListener_Solace Event Broker"><path codeLine="141" d="M143.7,889.4602 C143.7,903.4822 143.7,918.9082 143.7,934.1002 " fill="none" id="XMLMessageListener-to-Solace Event Broker" style="stroke:#181818;stroke-width:0.6;"/><polygon fill="#181818" points="143.7,937.7002,146.1,932.3002,143.7,934.7002,141.3,932.3002,143.7,937.7002" style="stroke:#181818;stroke-width:0.6;"/><text fill="#000000" font-family="sans-serif" font-size="7.8" lengthAdjust="spacing" textLength="69.762" x="144.3" y="917.6656">&#47700;&#49464;&#51648; &#44396;&#46021;(&#48708;&#46041;&#44592;)</text></g><!--link html to PublisherController--><g id="link_html_PublisherController"><path codeLine="142" d="M1033.38,122.3422 C1015.704,133.8262 996.912,146.0722 979.5,157.5082 C957.906,171.6922 937.2143,185.4107 916.5923,199.1447 " fill="none" id="html-to-PublisherController" style="stroke:#181818;stroke-width:0.6;"/><polygon fill="#181818" points="913.596,201.1402,919.4208,200.1445,916.0929,199.4773,916.7601,196.1494,913.596,201.1402" style="stroke:#181818;stroke-width:0.6;"/><text fill="#000000" font-family="sans-serif" font-size="7.8" lengthAdjust="spacing" textLength="84.9583" x="1004.496" y="150.3976">HTTP POST /publisher/*</text></g><!--link html to SubscriberController--><g id="link_html_SubscriberController"><path codeLine="143" d="M1107.3,122.4022 C1107.3,147.5962 1107.3,174.4042 1107.3,197.6602 " fill="none" id="html-to-SubscriberController" style="stroke:#181818;stroke-width:0.6;"/><polygon fill="#181818" points="1107.3,201.2602,1109.7,195.8602,1107.3,198.2602,1104.9,195.8602,1107.3,201.2602" style="stroke:#181818;stroke-width:0.6;"/><text fill="#000000" font-family="sans-serif" font-size="7.8" lengthAdjust="spacing" textLength="89.2849" x="1107.9" y="150.3976">HTTP POST /subscriber/*</text></g><!--SRC=[fLZRJXj76BxVfnYP2zO91FNMGaW9fILHK2pi7cxNknEpnTvTpOn9448YgXtHX3Hj0osafW8LDKcLIYwYgL5v8k_u7JepUnhlphfEoWLQPlxlFv-6QL1n6uO9mT86T0YuXTnrY81EZ_h-knr0dtRfaxDXfrlKp8Q1CIWeg0jWgc7NrqYjqO9R6c0_ry6ouLWD25OWnaOTWdAhrh3nclgoqgfX4zarg6rhsZGO_DttVxqS7dnV0XKFsKuT3FezltS8wC79S7_F_-qjlTgXnnUqmux-UJtiFECgFkbhdc6kStw547RJyngsQH3RTI8LwmX2PqiJUWG61VOikivzkmu2xVdFBAWGmGIB-sKNa-nT4zS_zvmyp6SO8iTemhpxCXF_m4MMT7zdiR9IBYFNWuZO40Cl_eo9hWT45UOxPXUm7PlSgIp61tgnD48WuJPSsm8OajjrnqNmurRW71Xwt-DkMaB8HNfHW5Wi93Tz0MiLrro79EEfw-axFOnhV1o46u6c-hoOrX71keq9H6b2hATFLWKbsWmXQ3DIdV-UpYXDssV-xnrnwRW40iHJ0hZtquI2WYVLVjj_zGZGdo_fuprwzO9sh_pJBlzx-EqXpy1NE_I85SbFlS5vZvuVijGKKEXOGe3im3odRAMjho7Ni4m34ptAiW1PP0R9ae7_Pf-s-_oBdhJfurF9T65TpIN4RNBpScGBKecBp3nWcJWSp2uacXLphGph72BcI8BSngY5iybz1Q8Dc_KHBtKWUKF1I_zFl9nCeVzCrt6WIVGYc9yltwjK5nQoD24RVSNmveEZ6N2lzXM3CRDTQpE5tHxf857xoZCw8OYqnkaJMIC5Etq25XzeUSpdWspFn4CPx2HAgl26K5r1Fiwc_226VnBNiyqPC5f5CwnZ4iQavP3Yk52gx4bk9Uyh8nUPf4Iydr59V6IpYcD20QOi23sylfdCOscwH8C3f-R3BFXovMxOADW4ibec3qJqCHrj2QmfqASdzEKRm9lZQTT_iKFRNLLOTPMuJAzNMIuk9Wdcs0Z-VpUm-iEj9kDaHX-96tOFGpUm3OG-sVLVzoKMURt-WQe1ftD7wRUPYNbExk6Sp0BJDR7LyU2-sncsUs3mrrl_UITU2iIIjbojbi5Ym-PRe6ux5dnuOuqq6_6Qc1n5gvTdE-lnTiZHdovLmHmeYGbqt0VIO3lPyv_jiyahK_CE1ERYpZ0NciNmW_CzlgR-ybquYCUXmgzGAaDnSRtkyCTligYaOcLXmXVZX4cm-3C60lfodvx_eQKMfp2V9AM2ROBXwDCpTZJejPd0Zl-intp4TzrjQTiDKbAa3RXPlYslus7_2e8oabXR4-U9PMFLdQ9Tr2597UKWuifA4D6HhYXgXQYjx6BhM7f2EAP5ADJ8SYC6KfKCAn7fL69rbs-i3cFbEglGXFO6r6zj4eXbZN1zh3OnYumsxyjJ1FeJmoGkMustyfuE9e9i_GyvwLNuC0e58C5txBu0NENj8KI9R-L44jrX5JR4imklsHxMHfvOisoHB7nK65M5bKVlc9vVi2SJuDjevv1UxB9Nt_1eNpUILzoDpMQ3B_7qv63G-w6efVVxY7TUhoo15kkdccf9ZQ2PXQO4BEYntC8i2fforOkWsULX19lCvnmNX4_lm7umnSjN4ZWX2a4hJrAK42LkPFpufbyVq_QVkO8IK13-VF9yfmUjB-UX4Jygj3m6Ge0yJoAEmuDkplD5lDA2Hr4ce9b8vuKu3P1i7a6C14GGA_z7Keewx8pKKHNWRBChXECgi3COTrpziU2ejwN0mHHYfcYADfXY4JMaGboVW1MefkZ6uwnEQwufEjw4UA6yxb-s_UT7h3iKjP6qu4nKfLrIhmBNicXbUPToXlkrVm40]--></g></svg>