<svg xmlns="http://www.w3.org/2000/svg" xmlns:xlink="http://www.w3.org/1999/xlink" contentStyleType="text/css" height="1182.6px" preserveAspectRatio="none" style="width:2314px;height:1182px;background:#FFFFFF;" version="1.1" viewBox="0 0 2314 1182" width="2314.8px" zoomAndPan="magnify"><defs/><g><rect fill="#FFFFFF" height="28.2705" style="stroke:#181818;stroke-width:0.9;" width="9" x="1040.7006" y="259.3986"/><rect fill="#FFFFFF" height="28.2705" style="stroke:#181818;stroke-width:0.9;" width="9" x="1040.7006" y="724.326"/><rect fill="#FFFFFF" height="56.5409" style="stroke:#181818;stroke-width:0.9;" width="9" x="1170.145" y="485.5623"/><rect fill="#FFFFFF" height="28.2705" style="stroke:#181818;stroke-width:0.9;" width="9" x="1313.2538" y="513.8328"/><rect fill="#FFFFFF" height="141.3523" style="stroke:#181818;stroke-width:0.9;" width="9" x="2001.2102" y="950.4896"/><rect fill="#FFFFFF" height="84.8114" style="stroke:#181818;stroke-width:0.9;" width="9" x="2233.1465" y="1007.0306"/><line style="stroke:#181818;stroke-width:0.45;stroke-dasharray:5.0,5.0;" x1="22.5" x2="22.5" y1="75.3759" y2="1108.0419"/><line style="stroke:#181818;stroke-width:0.45;stroke-dasharray:5.0,5.0;" x1="240.1554" x2="240.1554" y1="75.3759" y2="1108.0419"/><line style="stroke:#181818;stroke-width:0.45;stroke-dasharray:5.0,5.0;" x1="452.9966" x2="452.9966" y1="75.3759" y2="1108.0419"/><line style="stroke:#181818;stroke-width:0.45;stroke-dasharray:5.0,5.0;" x1="643.3879" x2="643.3879" y1="75.3759" y2="1108.0419"/><line style="stroke:#181818;stroke-width:0.45;stroke-dasharray:5.0,5.0;" x1="805.4675" x2="805.4675" y1="75.3759" y2="1108.0419"/><line style="stroke:#181818;stroke-width:0.45;stroke-dasharray:5.0,5.0;" x1="937.4243" x2="937.4243" y1="75.3759" y2="1108.0419"/><line style="stroke:#181818;stroke-width:0.45;stroke-dasharray:5.0,5.0;" x1="1044.6359" x2="1044.6359" y1="75.3759" y2="1108.0419"/><line style="stroke:#181818;stroke-width:0.45;stroke-dasharray:5.0,5.0;" x1="1174.4653" x2="1174.4653" y1="75.3759" y2="1108.0419"/><line style="stroke:#181818;stroke-width:0.45;stroke-dasharray:5.0,5.0;" x1="1317.0248" x2="1317.0248" y1="75.3759" y2="1108.0419"/><line style="stroke:#181818;stroke-width:0.45;stroke-dasharray:5.0,5.0;" x1="1453.4829" x2="1453.4829" y1="75.3759" y2="1108.0419"/><line style="stroke:#181818;stroke-width:0.45;stroke-dasharray:5.0,5.0;" x1="1583.6287" x2="1583.6287" y1="75.3759" y2="1108.0419"/><line style="stroke:#181818;stroke-width:0.45;stroke-dasharray:5.0,5.0;" x1="1704.7296" x2="1704.7296" y1="75.3759" y2="1108.0419"/><line style="stroke:#181818;stroke-width:0.45;stroke-dasharray:5.0,5.0;" x1="1836.0549" x2="1836.0549" y1="75.3759" y2="1108.0419"/><line style="stroke:#181818;stroke-width:0.45;stroke-dasharray:5.0,5.0;" x1="2005.6329" x2="2005.6329" y1="75.3759" y2="1108.0419"/><line style="stroke:#181818;stroke-width:0.45;stroke-dasharray:5.0,5.0;" x1="2237.0168" x2="2237.0168" y1="75.3759" y2="1108.0419"/><text fill="#000000" font-family="sans-serif" font-size="12.6" lengthAdjust="spacing" textLength="32.2137" x="4.5" y="72.2136">Client</text><ellipse cx="23.3068" cy="12.15" fill="#E2E2F0" rx="7.2" ry="7.2" style="stroke:#181818;stroke-width:0.45;"/><path d="M23.3068,19.35 L23.3068,43.65 M11.6068,26.55 L35.0068,26.55 M23.3068,43.65 L11.6068,57.15 M23.3068,43.65 L35.0068,57.15 " fill="none" style="stroke:#181818;stroke-width:0.45;"/><text fill="#000000" font-family="sans-serif" font-size="12.6" lengthAdjust="spacing" textLength="32.2137" x="4.5" y="1120.8555">Client</text><ellipse cx="23.3068" cy="1131.6678" fill="#E2E2F0" rx="7.2" ry="7.2" style="stroke:#181818;stroke-width:0.45;"/><path d="M23.3068,1138.8678 L23.3068,1163.1678 M11.6068,1146.0678 L35.0068,1146.0678 M23.3068,1163.1678 L11.6068,1176.6678 M23.3068,1163.1678 L35.0068,1176.6678 " fill="none" style="stroke:#181818;stroke-width:0.45;"/><rect fill="#E2E2F0" height="29.4759" rx="2.25" ry="2.25" style="stroke:#181818;stroke-width:0.45;" width="70.026" x="205.9554" y="45"/><text fill="#000000" font-family="sans-serif" font-size="12.6" lengthAdjust="spacing" textLength="57.426" x="212.2554" y="65.0136">index.html</text><rect fill="#E2E2F0" height="29.4759" rx="2.25" ry="2.25" style="stroke:#181818;stroke-width:0.45;" width="70.026" x="205.9554" y="1107.1419"/><text fill="#000000" font-family="sans-serif" font-size="12.6" lengthAdjust="spacing" textLength="57.426" x="212.2554" y="1127.1555">index.html</text><rect fill="#E2E2F0" height="29.4759" rx="2.25" ry="2.25" style="stroke:#181818;stroke-width:0.45;" width="119.7492" x="393.5966" y="45"/><text fill="#000000" font-family="sans-serif" font-size="12.6" lengthAdjust="spacing" textLength="107.1492" x="399.8966" y="65.0136">PublisherController</text><rect fill="#E2E2F0" height="29.4759" rx="2.25" ry="2.25" style="stroke:#181818;stroke-width:0.45;" width="119.7492" x="393.5966" y="1107.1419"/><text fill="#000000" font-family="sans-serif" font-size="12.6" lengthAdjust="spacing" textLength="107.1492" x="399.8966" y="1127.1555">PublisherController</text><rect fill="#E2E2F0" height="29.4759" rx="2.25" ry="2.25" style="stroke:#181818;stroke-width:0.45;" width="107.1431" x="590.2879" y="45"/><text fill="#000000" font-family="sans-serif" font-size="12.6" lengthAdjust="spacing" textLength="94.5431" x="596.5879" y="65.0136">PublisherService</text><rect fill="#E2E2F0" height="29.4759" rx="2.25" ry="2.25" style="stroke:#181818;stroke-width:0.45;" width="107.1431" x="590.2879" y="1107.1419"/><text fill="#000000" font-family="sans-serif" font-size="12.6" lengthAdjust="spacing" textLength="94.5431" x="596.5879" y="1127.1555">PublisherService</text><rect fill="#E2E2F0" height="29.4759" rx="2.25" ry="2.25" style="stroke:#181818;stroke-width:0.45;" width="65.1287" x="773.0675" y="45"/><text fill="#000000" font-family="sans-serif" font-size="12.6" lengthAdjust="spacing" textLength="52.5287" x="779.3675" y="65.0136">Publisher</text><rect fill="#E2E2F0" height="29.4759" rx="2.25" ry="2.25" style="stroke:#181818;stroke-width:0.45;" width="65.1287" x="773.0675" y="1107.1419"/><text fill="#000000" font-family="sans-serif" font-size="12.6" lengthAdjust="spacing" textLength="52.5287" x="779.3675" y="1127.1555">Publisher</text><rect fill="#E2E2F0" height="29.4759" rx="2.25" ry="2.25" style="stroke:#181818;stroke-width:0.45;" width="97.3116" x="888.8243" y="45"/><text fill="#000000" font-family="sans-serif" font-size="12.6" lengthAdjust="spacing" textLength="84.7116" x="895.1243" y="65.0136">JCSMPFactory</text><rect fill="#E2E2F0" height="29.4759" rx="2.25" ry="2.25" style="stroke:#181818;stroke-width:0.45;" width="97.3116" x="888.8243" y="1107.1419"/><text fill="#000000" font-family="sans-serif" font-size="12.6" lengthAdjust="spacing" textLength="84.7116" x="895.1243" y="1127.1555">JCSMPFactory</text><rect fill="#E2E2F0" height="29.4759" rx="2.25" ry="2.25" style="stroke:#181818;stroke-width:0.45;" width="100.1294" x="995.1359" y="45"/><text fill="#000000" font-family="sans-serif" font-size="12.6" lengthAdjust="spacing" textLength="87.5294" x="1001.4359" y="65.0136">JCSMPSession</text><rect fill="#E2E2F0" height="29.4759" rx="2.25" ry="2.25" style="stroke:#181818;stroke-width:0.45;" width="100.1294" x="995.1359" y="1107.1419"/><text fill="#000000" font-family="sans-serif" font-size="12.6" lengthAdjust="spacing" textLength="87.5294" x="1001.4359" y="1127.1555">JCSMPSession</text><rect fill="#E2E2F0" height="29.4759" rx="2.25" ry="2.25" style="stroke:#181818;stroke-width:0.45;" width="140.7595" x="1104.2653" y="45"/><text fill="#000000" font-family="sans-serif" font-size="12.6" lengthAdjust="spacing" textLength="128.1595" x="1110.5653" y="65.0136">XMLMessageProducer</text><rect fill="#E2E2F0" height="29.4759" rx="2.25" ry="2.25" style="stroke:#181818;stroke-width:0.45;" width="140.7595" x="1104.2653" y="1107.1419"/><text fill="#000000" font-family="sans-serif" font-size="12.6" lengthAdjust="spacing" textLength="128.1595" x="1110.5653" y="1127.1555">XMLMessageProducer</text><rect fill="#00FFFF" height="29.4759" rx="2.25" ry="2.25" style="stroke:#181818;stroke-width:0.45;" width="127.4581" x="1254.0248" y="45"/><text fill="#000000" font-family="sans-serif" font-size="12.6" lengthAdjust="spacing" textLength="114.8581" x="1260.3248" y="65.0136">Solace Event Broker</text><rect fill="#00FFFF" height="29.4759" rx="2.25" ry="2.25" style="stroke:#181818;stroke-width:0.45;" width="127.4581" x="1254.0248" y="1107.1419"/><text fill="#000000" font-family="sans-serif" font-size="12.6" lengthAdjust="spacing" textLength="114.8581" x="1260.3248" y="1127.1555">Solace Event Broker</text><rect fill="#E2E2F0" height="29.4759" rx="2.25" ry="2.25" style="stroke:#181818;stroke-width:0.45;" width="127.4458" x="1390.4829" y="45"/><text fill="#000000" font-family="sans-serif" font-size="12.6" lengthAdjust="spacing" textLength="114.8458" x="1396.7829" y="65.0136">SubscriberController</text><rect fill="#E2E2F0" height="29.4759" rx="2.25" ry="2.25" style="stroke:#181818;stroke-width:0.45;" width="127.4458" x="1390.4829" y="1107.1419"/><text fill="#000000" font-family="sans-serif" font-size="12.6" lengthAdjust="spacing" textLength="114.8458" x="1396.7829" y="1127.1555">SubscriberController</text><rect fill="#E2E2F0" height="29.4759" rx="2.25" ry="2.25" style="stroke:#181818;stroke-width:0.45;" width="114.8396" x="1526.9287" y="45"/><text fill="#000000" font-family="sans-serif" font-size="12.6" lengthAdjust="spacing" textLength="102.2396" x="1533.2287" y="65.0136">SubscriberService</text><rect fill="#E2E2F0" height="29.4759" rx="2.25" ry="2.25" style="stroke:#181818;stroke-width:0.45;" width="114.8396" x="1526.9287" y="1107.1419"/><text fill="#000000" font-family="sans-serif" font-size="12.6" lengthAdjust="spacing" textLength="102.2396" x="1533.2287" y="1127.1555">SubscriberService</text><rect fill="#E2E2F0" height="29.4759" rx="2.25" ry="2.25" style="stroke:#181818;stroke-width:0.45;" width="72.8253" x="1668.7296" y="45"/><text fill="#000000" font-family="sans-serif" font-size="12.6" lengthAdjust="spacing" textLength="60.2253" x="1675.0296" y="65.0136">Subscriber</text><rect fill="#E2E2F0" height="29.4759" rx="2.25" ry="2.25" style="stroke:#181818;stroke-width:0.45;" width="72.8253" x="1668.7296" y="1107.1419"/><text fill="#000000" font-family="sans-serif" font-size="12.6" lengthAdjust="spacing" textLength="60.2253" x="1675.0296" y="1127.1555">Subscriber</text><rect fill="#E2E2F0" height="29.4759" rx="2.25" ry="2.25" style="stroke:#181818;stroke-width:0.45;" width="172.2779" x="1750.5549" y="45"/><text fill="#000000" font-family="sans-serif" font-size="12.6" lengthAdjust="spacing" textLength="159.6779" x="1756.8549" y="65.0136">MessageWebSocketHandler</text><rect fill="#E2E2F0" height="29.4759" rx="2.25" ry="2.25" style="stroke:#181818;stroke-width:0.45;" width="172.2779" x="1750.5549" y="1107.1419"/><text fill="#000000" font-family="sans-serif" font-size="12.6" lengthAdjust="spacing" textLength="159.6779" x="1756.8549" y="1127.1555">MessageWebSocketHandler</text><rect fill="#E2E2F0" height="29.4759" rx="2.25" ry="2.25" style="stroke:#181818;stroke-width:0.45;" width="147.7547" x="1931.8329" y="45"/><text fill="#000000" font-family="sans-serif" font-size="12.6" lengthAdjust="spacing" textLength="135.1547" x="1938.1329" y="65.0136">XMLMessageConsumer</text><rect fill="#E2E2F0" height="29.4759" rx="2.25" ry="2.25" style="stroke:#181818;stroke-width:0.45;" width="147.7547" x="1931.8329" y="1107.1419"/><text fill="#000000" font-family="sans-serif" font-size="12.6" lengthAdjust="spacing" textLength="135.1547" x="1938.1329" y="1127.1555">XMLMessageConsumer</text><rect fill="#E2E2F0" height="29.4759" rx="2.25" ry="2.25" style="stroke:#181818;stroke-width:0.45;" width="134.4595" x="2170.4168" y="45"/><text fill="#000000" font-family="sans-serif" font-size="12.6" lengthAdjust="spacing" textLength="121.8595" x="2176.7168" y="65.0136">XMLMessageListener</text><rect fill="#E2E2F0" height="29.4759" rx="2.25" ry="2.25" style="stroke:#181818;stroke-width:0.45;" width="134.4595" x="2170.4168" y="1107.1419"/><text fill="#000000" font-family="sans-serif" font-size="12.6" lengthAdjust="spacing" textLength="121.8595" x="2176.7168" y="1127.1555">XMLMessageListener</text><rect fill="#FFFFFF" height="28.2705" style="stroke:#181818;stroke-width:0.9;" width="9" x="1040.7006" y="259.3986"/><rect fill="#FFFFFF" height="28.2705" style="stroke:#181818;stroke-width:0.9;" width="9" x="1040.7006" y="724.326"/><rect fill="#FFFFFF" height="56.5409" style="stroke:#181818;stroke-width:0.9;" width="9" x="1170.145" y="485.5623"/><rect fill="#FFFFFF" height="28.2705" style="stroke:#181818;stroke-width:0.9;" width="9" x="1313.2538" y="513.8328"/><rect fill="#FFFFFF" height="141.3523" style="stroke:#181818;stroke-width:0.9;" width="9" x="2001.2102" y="950.4896"/><rect fill="#FFFFFF" height="84.8114" style="stroke:#181818;stroke-width:0.9;" width="9" x="2233.1465" y="1007.0306"/><rect fill="#EEEEEE" height="2.7" style="stroke:#EEEEEE;stroke-width:0.9;" width="2309.3763" x="0" y="103.9111"/><line style="stroke:#000000;stroke-width:0.9;" x1="0" x2="2309.3763" y1="103.9111" y2="103.9111"/><line style="stroke:#000000;stroke-width:0.9;" x1="0" x2="2309.3763" y1="106.6111" y2="106.6111"/><rect fill="#EEEEEE" height="22.8705" style="stroke:#000000;stroke-width:1.8;" width="242.0754" x="1033.6504" y="93.3759"/><text fill="#000000" font-family="sans-serif" font-size="11.7" font-weight="bold" lengthAdjust="spacing" textLength="226.2248" x="1039.0504" y="109.7099">&#47700;&#49884;&#51648; &#48156;&#54665;(Message Publish) &#50892;&#53356;&#54540;&#47196;&#50864;</text><polygon fill="#181818" points="230.1684,142.7168,239.1684,146.3168,230.1684,149.9168,233.7684,146.3168" style="stroke:#181818;stroke-width:0.9;"/><line style="stroke:#181818;stroke-width:0.9;" x1="23.3068" x2="235.5684" y1="146.3168" y2="146.3168"/><text fill="#000000" font-family="sans-serif" font-size="11.7" font-weight="bold" lengthAdjust="spacing" textLength="6.507" x="29.6068" y="141.5804">1</text><text fill="#000000" font-family="sans-serif" font-size="11.7" lengthAdjust="spacing" textLength="163.8628" x="39.7138" y="141.5804">HTTP POST /publisher/connect</text><polygon fill="#181818" points="442.6712,170.9873,451.6712,174.5873,442.6712,178.1873,446.2712,174.5873" style="stroke:#181818;stroke-width:0.9;"/><line style="stroke:#181818;stroke-width:0.9;" x1="240.9684" x2="448.0712" y1="174.5873" y2="174.5873"/><text fill="#000000" font-family="sans-serif" font-size="11.7" font-weight="bold" lengthAdjust="spacing" textLength="6.507" x="247.2684" y="169.8508">2</text><text fill="#000000" font-family="sans-serif" font-size="11.7" lengthAdjust="spacing" textLength="48.7709" x="257.3754" y="169.8508">connect()</text><polygon fill="#181818" points="633.0595,199.2577,642.0595,202.8577,633.0595,206.4577,636.6595,202.8577" style="stroke:#181818;stroke-width:0.9;"/><line style="stroke:#181818;stroke-width:0.9;" x1="453.4712" x2="638.4595" y1="202.8577" y2="202.8577"/><text fill="#000000" font-family="sans-serif" font-size="11.7" font-weight="bold" lengthAdjust="spacing" textLength="6.507" x="459.7712" y="198.1213">3</text><text fill="#000000" font-family="sans-serif" font-size="11.7" lengthAdjust="spacing" textLength="48.7709" x="469.8782" y="198.1213">connect()</text><polygon fill="#181818" points="794.8318,227.5282,803.8318,231.1282,794.8318,234.7282,798.4318,231.1282" style="stroke:#181818;stroke-width:0.9;"/><line style="stroke:#181818;stroke-width:0.9;" x1="643.8595" x2="800.2318" y1="231.1282" y2="231.1282"/><text fill="#000000" font-family="sans-serif" font-size="11.7" font-weight="bold" lengthAdjust="spacing" textLength="6.507" x="650.1595" y="226.3917">4</text><text fill="#000000" font-family="sans-serif" font-size="11.7" lengthAdjust="spacing" textLength="48.7709" x="660.2665" y="226.3917">connect()</text><polygon fill="#181818" points="1029.9006,255.7986,1038.9006,259.3986,1029.9006,262.9986,1033.5006,259.3986" style="stroke:#181818;stroke-width:0.9;"/><line style="stroke:#181818;stroke-width:0.9;" x1="805.6318" x2="1035.3006" y1="259.3986" y2="259.3986"/><text fill="#000000" font-family="sans-serif" font-size="11.7" font-weight="bold" lengthAdjust="spacing" textLength="6.507" x="811.9318" y="254.6622">5</text><text fill="#000000" font-family="sans-serif" font-size="11.7" lengthAdjust="spacing" textLength="48.7709" x="822.0388" y="254.6622">connect()</text><polygon fill="#181818" points="815.5318,284.0691,806.5318,287.6691,815.5318,291.2691,811.9318,287.6691" style="stroke:#181818;stroke-width:0.9;"/><line style="stroke:#181818;stroke-width:0.9;stroke-dasharray:2.0,2.0;" x1="810.1318" x2="1044.3006" y1="287.6691" y2="287.6691"/><text fill="#000000" font-family="sans-serif" font-size="11.7" font-weight="bold" lengthAdjust="spacing" textLength="6.507" x="820.9318" y="282.9327">6</text><text fill="#000000" font-family="sans-serif" font-size="11.7" lengthAdjust="spacing" textLength="50.0506" x="831.0388" y="282.9327">&#50672;&#44208; &#50756;&#47308;</text><polygon fill="#181818" points="230.1684,312.3396,239.1684,315.9396,230.1684,319.5396,233.7684,315.9396" style="stroke:#181818;stroke-width:0.9;"/><line style="stroke:#181818;stroke-width:0.9;" x1="23.3068" x2="235.5684" y1="315.9396" y2="315.9396"/><text fill="#000000" font-family="sans-serif" font-size="11.7" font-weight="bold" lengthAdjust="spacing" textLength="6.507" x="29.6068" y="311.2031">7</text><text fill="#000000" font-family="sans-serif" font-size="11.7" lengthAdjust="spacing" textLength="159.9609" x="39.7138" y="311.2031">HTTP POST /publisher/publish</text><polygon fill="#181818" points="442.6712,340.61,451.6712,344.21,442.6712,347.81,446.2712,344.21" style="stroke:#181818;stroke-width:0.9;"/><line style="stroke:#181818;stroke-width:0.9;" x1="240.9684" x2="448.0712" y1="344.21" y2="344.21"/><text fill="#000000" font-family="sans-serif" font-size="11.7" font-weight="bold" lengthAdjust="spacing" textLength="6.507" x="247.2684" y="339.4736">8</text><text fill="#000000" font-family="sans-serif" font-size="11.7" lengthAdjust="spacing" textLength="180.7958" x="257.3754" y="339.4736">publish(Map&lt;String, Object&gt; body)</text><polygon fill="#181818" points="633.0595,368.8805,642.0595,372.4805,633.0595,376.0805,636.6595,372.4805" style="stroke:#181818;stroke-width:0.9;"/><line style="stroke:#181818;stroke-width:0.9;" x1="453.4712" x2="638.4595" y1="372.4805" y2="372.4805"/><text fill="#000000" font-family="sans-serif" font-size="11.7" font-weight="bold" lengthAdjust="spacing" textLength="6.507" x="459.7712" y="367.744">9</text><text fill="#000000" font-family="sans-serif" font-size="11.7" lengthAdjust="spacing" textLength="158.6813" x="469.8782" y="367.744">publish(topic, message, count)</text><polygon fill="#181818" points="794.8318,397.1509,803.8318,400.7509,794.8318,404.3509,798.4318,400.7509" style="stroke:#181818;stroke-width:0.9;"/><line style="stroke:#181818;stroke-width:0.9;" x1="643.8595" x2="800.2318" y1="400.7509" y2="400.7509"/><text fill="#000000" font-family="sans-serif" font-size="11.7" font-weight="bold" lengthAdjust="spacing" textLength="13.014" x="650.1595" y="396.0145">10</text><text fill="#000000" font-family="sans-serif" font-size="11.7" lengthAdjust="spacing" textLength="123.5584" x="666.7734" y="396.0145">publish(topic, message)</text><polygon fill="#181818" points="926.6801,425.4214,935.6801,429.0214,926.6801,432.6214,930.2801,429.0214" style="stroke:#181818;stroke-width:0.9;"/><line style="stroke:#181818;stroke-width:0.9;" x1="805.6318" x2="932.0801" y1="429.0214" y2="429.0214"/><text fill="#000000" font-family="sans-serif" font-size="11.7" font-weight="bold" lengthAdjust="spacing" textLength="13.014" x="811.9318" y="424.285">11</text><text fill="#000000" font-family="sans-serif" font-size="11.7" lengthAdjust="spacing" textLength="93.6343" x="828.5458" y="424.285">createTopic(topic)</text><polygon fill="#181818" points="815.5318,453.6918,806.5318,457.2918,815.5318,460.8918,811.9318,457.2918" style="stroke:#181818;stroke-width:0.9;"/><line style="stroke:#181818;stroke-width:0.9;stroke-dasharray:2.0,2.0;" x1="810.1318" x2="936.5801" y1="457.2918" y2="457.2918"/><text fill="#000000" font-family="sans-serif" font-size="11.7" font-weight="bold" lengthAdjust="spacing" textLength="13.014" x="820.9318" y="452.5554">12</text><text fill="#000000" font-family="sans-serif" font-size="11.7" lengthAdjust="spacing" textLength="55.2608" x="837.5458" y="452.5554">Topic &#49373;&#49457;</text><polygon fill="#181818" points="1159.345,481.9623,1168.345,485.5623,1159.345,489.1623,1162.945,485.5623" style="stroke:#181818;stroke-width:0.9;"/><line style="stroke:#181818;stroke-width:0.9;" x1="805.6318" x2="1164.745" y1="485.5623" y2="485.5623"/><text fill="#000000" font-family="sans-serif" font-size="11.7" font-weight="bold" lengthAdjust="spacing" textLength="13.014" x="811.9318" y="480.8259">13</text><text fill="#000000" font-family="sans-serif" font-size="11.7" lengthAdjust="spacing" textLength="104.6944" x="828.5458" y="480.8259">send(XMLMessage)</text><polygon fill="#181818" points="1302.4538,510.2328,1311.4538,513.8328,1302.4538,517.4328,1306.0538,513.8328" style="stroke:#181818;stroke-width:0.9;"/><line style="stroke:#181818;stroke-width:0.9;" x1="1179.145" x2="1307.8538" y1="513.8328" y2="513.8328"/><text fill="#000000" font-family="sans-serif" font-size="11.7" font-weight="bold" lengthAdjust="spacing" textLength="13.014" x="1185.445" y="509.0963">14</text><text fill="#000000" font-family="sans-serif" font-size="11.7" lengthAdjust="spacing" textLength="89.0982" x="1202.059" y="509.0963">Publish message</text><polygon fill="#181818" points="1184.545,538.5032,1175.545,542.1032,1184.545,545.7032,1180.945,542.1032" style="stroke:#181818;stroke-width:0.9;"/><line style="stroke:#181818;stroke-width:0.9;stroke-dasharray:2.0,2.0;" x1="1179.145" x2="1316.8538" y1="542.1032" y2="542.1032"/><text fill="#000000" font-family="sans-serif" font-size="11.7" font-weight="bold" lengthAdjust="spacing" textLength="13.014" x="1189.945" y="537.3668">15</text><text fill="#000000" font-family="sans-serif" font-size="11.7" lengthAdjust="spacing" textLength="65.6811" x="1206.559" y="537.3668">Publish ACK</text><rect fill="#EEEEEE" height="2.7" style="stroke:#EEEEEE;stroke-width:0.9;" width="2309.3763" x="0" y="568.8385"/><line style="stroke:#000000;stroke-width:0.9;" x1="0" x2="2309.3763" y1="568.8385" y2="568.8385"/><line style="stroke:#000000;stroke-width:0.9;" x1="0" x2="2309.3763" y1="571.5385" y2="571.5385"/><rect fill="#EEEEEE" height="22.8705" style="stroke:#000000;stroke-width:1.8;" width="256.3919" x="1026.4922" y="558.3032"/><text fill="#000000" font-family="sans-serif" font-size="11.7" font-weight="bold" lengthAdjust="spacing" textLength="240.5413" x="1031.8922" y="574.6373">&#47700;&#49884;&#51648; &#44396;&#46021;(Message Subscribe) &#50892;&#53356;&#54540;&#47196;&#50864;</text><polygon fill="#181818" points="230.1684,607.6441,239.1684,611.2441,230.1684,614.8441,233.7684,611.2441" style="stroke:#181818;stroke-width:0.9;"/><line style="stroke:#181818;stroke-width:0.9;" x1="23.3068" x2="235.5684" y1="611.2441" y2="611.2441"/><text fill="#000000" font-family="sans-serif" font-size="11.7" font-weight="bold" lengthAdjust="spacing" textLength="13.014" x="29.6068" y="606.5077">16</text><text fill="#000000" font-family="sans-serif" font-size="11.7" lengthAdjust="spacing" textLength="170.3527" x="46.2208" y="606.5077">HTTP POST /subscriber/connect</text><polygon fill="#181818" points="1443.4058,635.9146,1452.4058,639.5146,1443.4058,643.1146,1447.0058,639.5146" style="stroke:#181818;stroke-width:0.9;"/><line style="stroke:#181818;stroke-width:0.9;" x1="240.9684" x2="1448.8058" y1="639.5146" y2="639.5146"/><text fill="#000000" font-family="sans-serif" font-size="11.7" font-weight="bold" lengthAdjust="spacing" textLength="13.014" x="247.2684" y="634.7782">17</text><text fill="#000000" font-family="sans-serif" font-size="11.7" lengthAdjust="spacing" textLength="48.7709" x="263.8824" y="634.7782">connect()</text><polygon fill="#181818" points="1573.5485,664.1851,1582.5485,667.7851,1573.5485,671.3851,1577.1485,667.7851" style="stroke:#181818;stroke-width:0.9;"/><line style="stroke:#181818;stroke-width:0.9;" x1="1454.2058" x2="1578.9485" y1="667.7851" y2="667.7851"/><text fill="#000000" font-family="sans-serif" font-size="11.7" font-weight="bold" lengthAdjust="spacing" textLength="13.014" x="1460.5058" y="663.0486">18</text><text fill="#000000" font-family="sans-serif" font-size="11.7" lengthAdjust="spacing" textLength="48.7709" x="1477.1197" y="663.0486">connect()</text><polygon fill="#181818" points="1694.3423,692.4555,1703.3423,696.0555,1694.3423,699.6555,1697.9423,696.0555" style="stroke:#181818;stroke-width:0.9;"/><line style="stroke:#181818;stroke-width:0.9;" x1="1584.3485" x2="1699.7423" y1="696.0555" y2="696.0555"/><text fill="#000000" font-family="sans-serif" font-size="11.7" font-weight="bold" lengthAdjust="spacing" textLength="13.014" x="1590.6485" y="691.3191">19</text><text fill="#000000" font-family="sans-serif" font-size="11.7" lengthAdjust="spacing" textLength="48.7709" x="1607.2625" y="691.3191">connect()</text><polygon fill="#181818" points="1059.6006,720.726,1050.6006,724.326,1059.6006,727.926,1056.0006,724.326" style="stroke:#181818;stroke-width:0.9;"/><line style="stroke:#181818;stroke-width:0.9;" x1="1054.2006" x2="1704.2423" y1="724.326" y2="724.326"/><text fill="#000000" font-family="sans-serif" font-size="11.7" font-weight="bold" lengthAdjust="spacing" textLength="13.014" x="1065.0006" y="719.5896">20</text><text fill="#000000" font-family="sans-serif" font-size="11.7" lengthAdjust="spacing" textLength="48.7709" x="1081.6146" y="719.5896">connect()</text><polygon fill="#181818" points="1694.3423,748.9964,1703.3423,752.5964,1694.3423,756.1964,1697.9423,752.5964" style="stroke:#181818;stroke-width:0.9;"/><line style="stroke:#181818;stroke-width:0.9;stroke-dasharray:2.0,2.0;" x1="1045.2006" x2="1699.7423" y1="752.5964" y2="752.5964"/><text fill="#000000" font-family="sans-serif" font-size="11.7" font-weight="bold" lengthAdjust="spacing" textLength="13.014" x="1051.5006" y="747.86">21</text><text fill="#000000" font-family="sans-serif" font-size="11.7" lengthAdjust="spacing" textLength="50.0506" x="1068.1146" y="747.86">&#50672;&#44208; &#50756;&#47308;</text><polygon fill="#181818" points="230.1684,777.2669,239.1684,780.8669,230.1684,784.4669,233.7684,780.8669" style="stroke:#181818;stroke-width:0.9;"/><line style="stroke:#181818;stroke-width:0.9;" x1="23.3068" x2="235.5684" y1="780.8669" y2="780.8669"/><text fill="#000000" font-family="sans-serif" font-size="11.7" font-weight="bold" lengthAdjust="spacing" textLength="13.014" x="29.6068" y="776.1305">22</text><text fill="#000000" font-family="sans-serif" font-size="11.7" lengthAdjust="spacing" textLength="179.4476" x="46.2208" y="776.1305">HTTP POST /subscriber/subscribe</text><polygon fill="#181818" points="1443.4058,805.5374,1452.4058,809.1374,1443.4058,812.7374,1447.0058,809.1374" style="stroke:#181818;stroke-width:0.9;"/><line style="stroke:#181818;stroke-width:0.9;" x1="240.9684" x2="1448.8058" y1="809.1374" y2="809.1374"/><text fill="#000000" font-family="sans-serif" font-size="11.7" font-weight="bold" lengthAdjust="spacing" textLength="13.014" x="247.2684" y="804.4009">23</text><text fill="#000000" font-family="sans-serif" font-size="11.7" lengthAdjust="spacing" textLength="193.7927" x="263.8824" y="804.4009">subscribe(Map&lt;String, Object&gt; body)</text><polygon fill="#181818" points="1573.5485,833.8078,1582.5485,837.4078,1573.5485,841.0078,1577.1485,837.4078" style="stroke:#181818;stroke-width:0.9;"/><line style="stroke:#181818;stroke-width:0.9;" x1="1454.2058" x2="1578.9485" y1="837.4078" y2="837.4078"/><text fill="#000000" font-family="sans-serif" font-size="11.7" font-weight="bold" lengthAdjust="spacing" textLength="13.014" x="1460.5058" y="832.6714">24</text><text fill="#000000" font-family="sans-serif" font-size="11.7" lengthAdjust="spacing" textLength="82.5798" x="1477.1197" y="832.6714">subscribe(topic)</text><polygon fill="#181818" points="1694.3423,862.0783,1703.3423,865.6783,1694.3423,869.2783,1697.9423,865.6783" style="stroke:#181818;stroke-width:0.9;"/><line style="stroke:#181818;stroke-width:0.9;" x1="1584.3485" x2="1699.7423" y1="865.6783" y2="865.6783"/><text fill="#000000" font-family="sans-serif" font-size="11.7" font-weight="bold" lengthAdjust="spacing" textLength="13.014" x="1590.6485" y="860.9418">25</text><text fill="#000000" font-family="sans-serif" font-size="11.7" lengthAdjust="spacing" textLength="82.5798" x="1607.2625" y="860.9418">subscribe(topic)</text><polygon fill="#181818" points="947.3801,890.3487,938.3801,893.9487,947.3801,897.5487,943.7801,893.9487" style="stroke:#181818;stroke-width:0.9;"/><line style="stroke:#181818;stroke-width:0.9;" x1="941.9801" x2="1704.2423" y1="893.9487" y2="893.9487"/><text fill="#000000" font-family="sans-serif" font-size="11.7" font-weight="bold" lengthAdjust="spacing" textLength="13.014" x="952.7801" y="889.2123">26</text><text fill="#000000" font-family="sans-serif" font-size="11.7" lengthAdjust="spacing" textLength="93.6343" x="969.394" y="889.2123">createTopic(topic)</text><polygon fill="#181818" points="1694.3423,918.6192,1703.3423,922.2192,1694.3423,925.8192,1697.9423,922.2192" style="stroke:#181818;stroke-width:0.9;"/><line style="stroke:#181818;stroke-width:0.9;stroke-dasharray:2.0,2.0;" x1="937.4801" x2="1699.7423" y1="922.2192" y2="922.2192"/><text fill="#000000" font-family="sans-serif" font-size="11.7" font-weight="bold" lengthAdjust="spacing" textLength="13.014" x="943.7801" y="917.4828">27</text><text fill="#000000" font-family="sans-serif" font-size="11.7" lengthAdjust="spacing" textLength="55.2608" x="960.394" y="917.4828">Topic &#49373;&#49457;</text><polygon fill="#181818" points="1990.4102,946.8896,1999.4102,950.4896,1990.4102,954.0896,1994.0102,950.4896" style="stroke:#181818;stroke-width:0.9;"/><line style="stroke:#181818;stroke-width:0.9;" x1="1705.1423" x2="1995.8102" y1="950.4896" y2="950.4896"/><text fill="#000000" font-family="sans-serif" font-size="11.7" font-weight="bold" lengthAdjust="spacing" textLength="13.014" x="1711.4423" y="945.7532">28</text><text fill="#000000" font-family="sans-serif" font-size="11.7" lengthAdjust="spacing" textLength="30.5468" x="1728.0563" y="945.7532">start()</text><polygon fill="#181818" points="1990.4102,975.1601,1999.4102,978.7601,1990.4102,982.3601,1994.0102,978.7601" style="stroke:#181818;stroke-width:0.9;"/><line style="stroke:#181818;stroke-width:0.9;" x1="1317.7538" x2="1995.8102" y1="978.7601" y2="978.7601"/><text fill="#000000" font-family="sans-serif" font-size="11.7" font-weight="bold" lengthAdjust="spacing" textLength="13.014" x="1324.0538" y="974.0237">29</text><text fill="#000000" font-family="sans-serif" font-size="11.7" lengthAdjust="spacing" textLength="89.0982" x="1340.6678" y="974.0237">Publish message</text><polygon fill="#181818" points="2222.3465,1003.4306,2231.3465,1007.0306,2222.3465,1010.6306,2225.9465,1007.0306" style="stroke:#181818;stroke-width:0.9;"/><line style="stroke:#181818;stroke-width:0.9;" x1="2010.2102" x2="2227.7465" y1="1007.0306" y2="1007.0306"/><text fill="#000000" font-family="sans-serif" font-size="11.7" font-weight="bold" lengthAdjust="spacing" textLength="13.014" x="2016.5102" y="1002.2941">30</text><text fill="#000000" font-family="sans-serif" font-size="11.7" lengthAdjust="spacing" textLength="189.2224" x="2033.1242" y="1002.2941">onReceive(BytesXMLMessage msg)</text><polygon fill="#181818" points="1715.0423,1031.701,1706.0423,1035.301,1715.0423,1038.901,1711.4423,1035.301" style="stroke:#181818;stroke-width:0.9;"/><line style="stroke:#181818;stroke-width:0.9;" x1="1709.6423" x2="2232.2465" y1="1035.301" y2="1035.301"/><text fill="#000000" font-family="sans-serif" font-size="11.7" font-weight="bold" lengthAdjust="spacing" textLength="13.014" x="1720.4423" y="1030.5646">31</text><text fill="#000000" font-family="sans-serif" font-size="11.7" lengthAdjust="spacing" textLength="100.1013" x="1737.0563" y="1030.5646">&#51204;&#45804;&#46108; &#47700;&#49884;&#51648; &#52376;&#47532;</text><polygon fill="#181818" points="1825.8939,1059.9715,1834.8939,1063.5715,1825.8939,1067.1715,1829.4939,1063.5715" style="stroke:#181818;stroke-width:0.9;"/><line style="stroke:#181818;stroke-width:0.9;" x1="1705.1423" x2="1831.2939" y1="1063.5715" y2="1063.5715"/><text fill="#000000" font-family="sans-serif" font-size="11.7" font-weight="bold" lengthAdjust="spacing" textLength="13.014" x="1711.4423" y="1058.8351">32</text><text fill="#000000" font-family="sans-serif" font-size="11.7" lengthAdjust="spacing" textLength="81.2773" x="1728.0563" y="1058.8351">broadcast(msg)</text><polygon fill="#181818" points="250.8684,1088.2419,241.8684,1091.8419,250.8684,1095.4419,247.2684,1091.8419" style="stroke:#181818;stroke-width:0.9;"/><line style="stroke:#181818;stroke-width:0.9;" x1="245.4684" x2="1835.7939" y1="1091.8419" y2="1091.8419"/><text fill="#000000" font-family="sans-serif" font-size="11.7" font-weight="bold" lengthAdjust="spacing" textLength="13.014" x="256.2684" y="1087.1055">33</text><text fill="#000000" font-family="sans-serif" font-size="11.7" lengthAdjust="spacing" textLength="124.8267" x="272.8824" y="1087.1055">WebSocket &#47700;&#49884;&#51648; &#51204;&#49569;</text><!--SRC=[bLHFRzCm7BtxKrZZqaaRkqzq4eke1ZHQX8l6rKcipQorY-DKx0QY8A5LWiF4to9jGW8XzL0cyQMMz3lWE4vgR-q6D-UzzxD_x-SNurHoblP28W30aUG2UbrAc8GuWHxeOo5fHFjO0IkKnUJvxGFPwwuKxEFx3XsaOPSc1qHud4d1krqY2bNWBLOX8WOq8bg25aiqvr0FFEG7BTtcKS6shhA890dbh63TRP_uRLznU9y4WiTfLExlkmUi8Dx5ggjxWs84su8V4g7Dbaju2pzBCN1AK1ecaQ3XPUF8MoApd2EqHAF9D7HOq_qU2H6F3edSmImsP-sXdILULKz9sZDUlIMYDaqaOKRK1g3PXDcla_nudFzy0RFfUFRXRSD8gzjPXVdNqUpbP7Oooix6-PSfR3Q11zUtL2pW9jpfT08OxA8EtEXNrxaHSSP8985IA5tWAPs16giWqCK1Sa6aGHSh85Uc0a47M19ruwh0LEGVfnVdKvX_7cRVHo0cbkYcHitARjH03H_txo0fADjVWxlXKtN-5WnvVEGOgCIIzscq1dlbwDPKnocJjgl5GkEnLNWKHBNSAUXIj0fQjKCDm_pLjtpukopn2pWXB6xCBzSQZmgxhtKcpPlLRLOdpwMb0XZXUhLtfR_hFRH7QjGMeevoOtJnPvAzUrt7g8xwlmSfgV-EIqb2RfAGhaPkH92UkJhLHTNtpMagg_uxJrQ_zTBkk0Ql2PNbPIutGR0jNILBPzTcg2nrKcJAVDsVL8-5FG_rVjI1C9hB-V5rltvRKPmz8X6X0zBOFf8acGSIzf9zUrVruAY2-PnFXzdn97i_jiAJdt_AVaogxjHhftIXu3YES28RUhy2h2wXVYBjBKw7-Pipu6IqxNnvVm40]--></g></svg>