<svg xmlns="http://www.w3.org/2000/svg" xmlns:xlink="http://www.w3.org/1999/xlink" contentStyleType="text/css" height="742.5px" preserveAspectRatio="none" style="width:1600px;height:742px;background:#FFFFFF;" version="1.1" viewBox="0 0 1600 742" width="1600.5px" zoomAndPan="magnify"><defs/><g><rect fill="#FFFFFF" height="15.7058" style="stroke:#181818;stroke-width:0.5;" width="5" x="1217.5129" y="144.1104"/><rect fill="#FFFFFF" height="15.7058" style="stroke:#181818;stroke-width:0.5;" width="5" x="1217.5129" y="535.0498"/><rect fill="#FFFFFF" height="31.4116" style="stroke:#181818;stroke-width:0.5;" width="5" x="1289.4265" y="254.051"/><rect fill="#FFFFFF" height="31.4116" style="stroke:#181818;stroke-width:0.5;" width="5" x="1289.4265" y="402.4033"/><rect fill="#FFFFFF" height="62.8232" style="stroke:#181818;stroke-width:0.5;" width="5" x="1374.5693" y="629.2847"/><rect fill="#FFFFFF" height="15.7058" style="stroke:#181818;stroke-width:0.5;" width="5" x="1556.7273" y="269.7568"/><rect fill="#FFFFFF" height="15.7058" style="stroke:#181818;stroke-width:0.5;" width="5" x="1556.7273" y="418.1091"/><line style="stroke:#181818;stroke-width:0.25;stroke-dasharray:5.0,5.0;" x1="12.5" x2="12.5" y1="41.8755" y2="701.1079"/><line style="stroke:#181818;stroke-width:0.25;stroke-dasharray:5.0,5.0;" x1="160.1782" x2="160.1782" y1="41.8755" y2="701.1079"/><line style="stroke:#181818;stroke-width:0.25;stroke-dasharray:5.0,5.0;" x1="359.7739" x2="359.7739" y1="41.8755" y2="701.1079"/><line style="stroke:#181818;stroke-width:0.25;stroke-dasharray:5.0,5.0;" x1="621.2771" x2="621.2771" y1="41.8755" y2="701.1079"/><line style="stroke:#181818;stroke-width:0.25;stroke-dasharray:5.0,5.0;" x1="882.7837" x2="882.7837" y1="41.8755" y2="701.1079"/><line style="stroke:#181818;stroke-width:0.25;stroke-dasharray:5.0,5.0;" x1="960.2041" x2="960.2041" y1="41.8755" y2="701.1079"/><line style="stroke:#181818;stroke-width:0.25;stroke-dasharray:5.0,5.0;" x1="1050.0244" x2="1050.0244" y1="41.8755" y2="701.1079"/><line style="stroke:#181818;stroke-width:0.25;stroke-dasharray:5.0,5.0;" x1="1156.8926" x2="1156.8926" y1="41.8755" y2="701.1079"/><line style="stroke:#181818;stroke-width:0.25;stroke-dasharray:5.0,5.0;" x1="1219.6992" x2="1219.6992" y1="41.8755" y2="701.1079"/><line style="stroke:#181818;stroke-width:0.25;stroke-dasharray:5.0,5.0;" x1="1291.8267" x2="1291.8267" y1="41.8755" y2="701.1079"/><line style="stroke:#181818;stroke-width:0.25;stroke-dasharray:5.0,5.0;" x1="1377.0264" x2="1377.0264" y1="41.8755" y2="701.1079"/><line style="stroke:#181818;stroke-width:0.25;stroke-dasharray:5.0,5.0;" x1="1470.6123" x2="1470.6123" y1="41.8755" y2="701.1079"/><line style="stroke:#181818;stroke-width:0.25;stroke-dasharray:5.0,5.0;" x1="1558.8223" x2="1558.8223" y1="41.8755" y2="701.1079"/><text fill="#000000" font-family="sans-serif" font-size="7" lengthAdjust="spacing" textLength="17.8965" x="2.5" y="40.1187">Client</text><ellipse cx="12.9482" cy="6.75" fill="#E2E2F0" rx="4" ry="4" style="stroke:#181818;stroke-width:0.25;"/><path d="M12.9482,10.75 L12.9482,24.25 M6.4482,14.75 L19.4482,14.75 M12.9482,24.25 L6.4482,31.75 M12.9482,24.25 L19.4482,31.75 " fill="none" style="stroke:#181818;stroke-width:0.25;"/><text fill="#000000" font-family="sans-serif" font-size="7" lengthAdjust="spacing" textLength="17.8965" x="2.5" y="708.2266">Client</text><ellipse cx="12.9482" cy="714.2334" fill="#E2E2F0" rx="4" ry="4" style="stroke:#181818;stroke-width:0.25;"/><path d="M12.9482,718.2334 L12.9482,731.7334 M6.4482,722.2334 L19.4482,722.2334 M12.9482,731.7334 L6.4482,739.2334 M12.9482,731.7334 L19.4482,739.2334 " fill="none" style="stroke:#181818;stroke-width:0.25;"/><rect fill="#E2E2F0" height="16.3755" rx="1.25" ry="1.25" style="stroke:#181818;stroke-width:0.25;" width="38.9033" x="141.1782" y="25"/><text fill="#000000" font-family="sans-serif" font-size="7" lengthAdjust="spacing" textLength="31.9033" x="144.6782" y="36.1187">index.html</text><rect fill="#E2E2F0" height="16.3755" rx="1.25" ry="1.25" style="stroke:#181818;stroke-width:0.25;" width="38.9033" x="141.1782" y="700.6079"/><text fill="#000000" font-family="sans-serif" font-size="7" lengthAdjust="spacing" textLength="31.9033" x="144.6782" y="711.7266">index.html</text><rect fill="#E2E2F0" height="16.3755" rx="1.25" ry="1.25" style="stroke:#181818;stroke-width:0.25;" width="84.4341" x="317.7739" y="25"/><text fill="#000000" font-family="sans-serif" font-size="7" lengthAdjust="spacing" textLength="77.4341" x="321.2739" y="36.1187">QueueProduceController</text><rect fill="#E2E2F0" height="16.3755" rx="1.25" ry="1.25" style="stroke:#181818;stroke-width:0.25;" width="84.4341" x="317.7739" y="700.6079"/><text fill="#000000" font-family="sans-serif" font-size="7" lengthAdjust="spacing" textLength="77.4341" x="321.2739" y="711.7266">QueueProduceController</text><rect fill="#E2E2F0" height="16.3755" rx="1.25" ry="1.25" style="stroke:#181818;stroke-width:0.25;" width="77.4307" x="582.7771" y="25"/><text fill="#000000" font-family="sans-serif" font-size="7" lengthAdjust="spacing" textLength="70.4307" x="586.2771" y="36.1187">QueueProduceService</text><rect fill="#E2E2F0" height="16.3755" rx="1.25" ry="1.25" style="stroke:#181818;stroke-width:0.25;" width="77.4307" x="582.7771" y="700.6079"/><text fill="#000000" font-family="sans-serif" font-size="7" lengthAdjust="spacing" textLength="70.4307" x="586.2771" y="711.7266">QueueProduceService</text><rect fill="#E2E2F0" height="16.3755" rx="1.25" ry="1.25" style="stroke:#181818;stroke-width:0.25;" width="56.4204" x="854.7837" y="25"/><text fill="#000000" font-family="sans-serif" font-size="7" lengthAdjust="spacing" textLength="49.4204" x="858.2837" y="36.1187">QueueProducer</text><rect fill="#E2E2F0" height="16.3755" rx="1.25" ry="1.25" style="stroke:#181818;stroke-width:0.25;" width="56.4204" x="854.7837" y="700.6079"/><text fill="#000000" font-family="sans-serif" font-size="7" lengthAdjust="spacing" textLength="49.4204" x="858.2837" y="711.7266">QueueProducer</text><rect fill="#E2E2F0" height="16.3755" rx="1.25" ry="1.25" style="stroke:#181818;stroke-width:0.25;" width="88.3203" x="916.2041" y="25"/><text fill="#000000" font-family="sans-serif" font-size="7" lengthAdjust="spacing" textLength="81.3203" x="919.7041" y="36.1187">QueueConsumeController</text><rect fill="#E2E2F0" height="16.3755" rx="1.25" ry="1.25" style="stroke:#181818;stroke-width:0.25;" width="88.3203" x="916.2041" y="700.6079"/><text fill="#000000" font-family="sans-serif" font-size="7" lengthAdjust="spacing" textLength="81.3203" x="919.7041" y="711.7266">QueueConsumeController</text><rect fill="#E2E2F0" height="16.3755" rx="1.25" ry="1.25" style="stroke:#181818;stroke-width:0.25;" width="81.3169" x="1009.5244" y="25"/><text fill="#000000" font-family="sans-serif" font-size="7" lengthAdjust="spacing" textLength="74.3169" x="1013.0244" y="36.1187">QueueConsumeService</text><rect fill="#E2E2F0" height="16.3755" rx="1.25" ry="1.25" style="stroke:#181818;stroke-width:0.25;" width="81.3169" x="1009.5244" y="700.6079"/><text fill="#000000" font-family="sans-serif" font-size="7" lengthAdjust="spacing" textLength="74.3169" x="1013.0244" y="711.7266">QueueConsumeService</text><rect fill="#E2E2F0" height="16.3755" rx="1.25" ry="1.25" style="stroke:#181818;stroke-width:0.25;" width="60.3066" x="1126.8926" y="25"/><text fill="#000000" font-family="sans-serif" font-size="7" lengthAdjust="spacing" textLength="53.3066" x="1130.3926" y="36.1187">QueueConsumer</text><rect fill="#E2E2F0" height="16.3755" rx="1.25" ry="1.25" style="stroke:#181818;stroke-width:0.25;" width="60.3066" x="1126.8926" y="700.6079"/><text fill="#000000" font-family="sans-serif" font-size="7" lengthAdjust="spacing" textLength="53.3066" x="1130.3926" y="711.7266">QueueConsumer</text><rect fill="#E2E2F0" height="16.3755" rx="1.25" ry="1.25" style="stroke:#181818;stroke-width:0.25;" width="55.6274" x="1192.1992" y="25"/><text fill="#000000" font-family="sans-serif" font-size="7" lengthAdjust="spacing" textLength="48.6274" x="1195.6992" y="36.1187">JCSMPSession</text><rect fill="#E2E2F0" height="16.3755" rx="1.25" ry="1.25" style="stroke:#181818;stroke-width:0.25;" width="55.6274" x="1192.1992" y="700.6079"/><text fill="#000000" font-family="sans-serif" font-size="7" lengthAdjust="spacing" textLength="48.6274" x="1195.6992" y="711.7266">JCSMPSession</text><rect fill="#E2E2F0" height="16.3755" rx="1.25" ry="1.25" style="stroke:#181818;stroke-width:0.25;" width="78.1997" x="1252.8267" y="25"/><text fill="#000000" font-family="sans-serif" font-size="7" lengthAdjust="spacing" textLength="71.1997" x="1256.3267" y="36.1187">XMLMessageProducer</text><rect fill="#E2E2F0" height="16.3755" rx="1.25" ry="1.25" style="stroke:#181818;stroke-width:0.25;" width="78.1997" x="1252.8267" y="700.6079"/><text fill="#000000" font-family="sans-serif" font-size="7" lengthAdjust="spacing" textLength="71.1997" x="1256.3267" y="711.7266">XMLMessageProducer</text><rect fill="#E2E2F0" height="16.3755" rx="1.25" ry="1.25" style="stroke:#181818;stroke-width:0.25;" width="82.0859" x="1336.0264" y="25"/><text fill="#000000" font-family="sans-serif" font-size="7" lengthAdjust="spacing" textLength="75.0859" x="1339.5264" y="36.1187">XMLMessageConsumer</text><rect fill="#E2E2F0" height="16.3755" rx="1.25" ry="1.25" style="stroke:#181818;stroke-width:0.25;" width="82.0859" x="1336.0264" y="700.6079"/><text fill="#000000" font-family="sans-serif" font-size="7" lengthAdjust="spacing" textLength="75.0859" x="1339.5264" y="711.7266">XMLMessageConsumer</text><rect fill="#E2E2F0" height="16.3755" rx="1.25" ry="1.25" style="stroke:#181818;stroke-width:0.25;" width="95.71" x="1423.1123" y="25"/><text fill="#000000" font-family="sans-serif" font-size="7" lengthAdjust="spacing" textLength="88.71" x="1426.6123" y="36.1187">MessageWebSocketHandler</text><rect fill="#E2E2F0" height="16.3755" rx="1.25" ry="1.25" style="stroke:#181818;stroke-width:0.25;" width="95.71" x="1423.1123" y="700.6079"/><text fill="#000000" font-family="sans-serif" font-size="7" lengthAdjust="spacing" textLength="88.71" x="1426.6123" y="711.7266">MessageWebSocketHandler</text><rect fill="#00FFFF" height="16.3755" rx="1.25" ry="1.25" style="stroke:#181818;stroke-width:0.25;" width="70.8101" x="1523.8223" y="25"/><text fill="#000000" font-family="sans-serif" font-size="7" lengthAdjust="spacing" textLength="63.8101" x="1527.3223" y="36.1187">Solace Event Broker</text><rect fill="#00FFFF" height="16.3755" rx="1.25" ry="1.25" style="stroke:#181818;stroke-width:0.25;" width="70.8101" x="1523.8223" y="700.6079"/><text fill="#000000" font-family="sans-serif" font-size="7" lengthAdjust="spacing" textLength="63.8101" x="1527.3223" y="711.7266">Solace Event Broker</text><rect fill="#FFFFFF" height="15.7058" style="stroke:#181818;stroke-width:0.5;" width="5" x="1217.5129" y="144.1104"/><rect fill="#FFFFFF" height="15.7058" style="stroke:#181818;stroke-width:0.5;" width="5" x="1217.5129" y="535.0498"/><rect fill="#FFFFFF" height="31.4116" style="stroke:#181818;stroke-width:0.5;" width="5" x="1289.4265" y="254.051"/><rect fill="#FFFFFF" height="31.4116" style="stroke:#181818;stroke-width:0.5;" width="5" x="1289.4265" y="402.4033"/><rect fill="#FFFFFF" height="62.8232" style="stroke:#181818;stroke-width:0.5;" width="5" x="1374.5693" y="629.2847"/><rect fill="#FFFFFF" height="15.7058" style="stroke:#181818;stroke-width:0.5;" width="5" x="1556.7273" y="269.7568"/><rect fill="#FFFFFF" height="15.7058" style="stroke:#181818;stroke-width:0.5;" width="5" x="1556.7273" y="418.1091"/><rect fill="#EEEEEE" height="1.5" style="stroke:#EEEEEE;stroke-width:0.5;" width="1597.1323" x="0" y="57.7284"/><line style="stroke:#000000;stroke-width:0.5;" x1="0" x2="1597.1323" y1="57.7284" y2="57.7284"/><line style="stroke:#000000;stroke-width:0.5;" x1="0" x2="1597.1323" y1="59.2284" y2="59.2284"/><rect fill="#EEEEEE" height="12.7058" style="stroke:#000000;stroke-width:1.0;" width="189.0254" x="704.0535" y="51.8755"/><text fill="#000000" font-family="sans-serif" font-size="6.5" font-weight="bold" lengthAdjust="spacing" textLength="180.2195" x="707.0535" y="60.95">Queue &#47700;&#49884;&#51648; &#49373;&#49328;(Produce Message to Queue) &#50892;&#53356;&#54540;&#47196;&#50864;</text><polygon fill="#181818" points="154.6299,79.2871,159.6299,81.2871,154.6299,83.2871,156.6299,81.2871" style="stroke:#181818;stroke-width:0.5;"/><line style="stroke:#181818;stroke-width:0.5;" x1="12.9482" x2="157.6299" y1="81.2871" y2="81.2871"/><text fill="#000000" font-family="sans-serif" font-size="6.5" font-weight="bold" lengthAdjust="spacing" textLength="3.615" x="16.4482" y="78.6558">1</text><text fill="#000000" font-family="sans-serif" font-size="6.5" lengthAdjust="spacing" textLength="110.1921" x="22.0632" y="78.6558">HTTP POST /queue/connect/producer</text><polygon fill="#181818" points="353.991,94.9929,358.991,96.9929,353.991,98.9929,355.991,96.9929" style="stroke:#181818;stroke-width:0.5;"/><line style="stroke:#181818;stroke-width:0.5;" x1="160.6299" x2="356.991" y1="96.9929" y2="96.9929"/><text fill="#000000" font-family="sans-serif" font-size="6.5" font-weight="bold" lengthAdjust="spacing" textLength="3.615" x="164.1299" y="94.3616">2</text><text fill="#000000" font-family="sans-serif" font-size="6.5" lengthAdjust="spacing" textLength="27.095" x="169.7449" y="94.3616">connect()</text><polygon fill="#181818" points="615.4924,110.6987,620.4924,112.6987,615.4924,114.6987,617.4924,112.6987" style="stroke:#181818;stroke-width:0.5;"/><line style="stroke:#181818;stroke-width:0.5;" x1="359.991" x2="618.4924" y1="112.6987" y2="112.6987"/><text fill="#000000" font-family="sans-serif" font-size="6.5" font-weight="bold" lengthAdjust="spacing" textLength="3.615" x="363.491" y="110.0674">3</text><text fill="#000000" font-family="sans-serif" font-size="6.5" lengthAdjust="spacing" textLength="27.095" x="369.106" y="110.0674">connect()</text><polygon fill="#181818" points="876.9939,126.4045,881.9939,128.4045,876.9939,130.4045,878.9939,128.4045" style="stroke:#181818;stroke-width:0.5;"/><line style="stroke:#181818;stroke-width:0.5;" x1="621.4924" x2="879.9939" y1="128.4045" y2="128.4045"/><text fill="#000000" font-family="sans-serif" font-size="6.5" font-weight="bold" lengthAdjust="spacing" textLength="3.615" x="624.9924" y="125.7732">4</text><text fill="#000000" font-family="sans-serif" font-size="6.5" lengthAdjust="spacing" textLength="27.095" x="630.6074" y="125.7732">connect()</text><polygon fill="#181818" points="1211.5129,142.1104,1216.5129,144.1104,1211.5129,146.1104,1213.5129,144.1104" style="stroke:#181818;stroke-width:0.5;"/><line style="stroke:#181818;stroke-width:0.5;" x1="882.9939" x2="1214.5129" y1="144.1104" y2="144.1104"/><text fill="#000000" font-family="sans-serif" font-size="6.5" font-weight="bold" lengthAdjust="spacing" textLength="3.615" x="886.4939" y="141.479">5</text><text fill="#000000" font-family="sans-serif" font-size="6.5" lengthAdjust="spacing" textLength="27.095" x="892.1089" y="141.479">connect()</text><polygon fill="#181818" points="888.4939,157.8162,883.4939,159.8162,888.4939,161.8162,886.4939,159.8162" style="stroke:#181818;stroke-width:0.5;"/><line style="stroke:#181818;stroke-width:0.5;stroke-dasharray:2.0,2.0;" x1="885.4939" x2="1219.5129" y1="159.8162" y2="159.8162"/><text fill="#000000" font-family="sans-serif" font-size="6.5" font-weight="bold" lengthAdjust="spacing" textLength="3.615" x="891.4939" y="157.1848">6</text><text fill="#000000" font-family="sans-serif" font-size="6.5" lengthAdjust="spacing" textLength="27.8059" x="897.1089" y="157.1848">&#50672;&#44208; &#50756;&#47308;</text><polygon fill="#181818" points="154.6299,173.522,159.6299,175.522,154.6299,177.522,156.6299,175.522" style="stroke:#181818;stroke-width:0.5;"/><line style="stroke:#181818;stroke-width:0.5;" x1="12.9482" x2="157.6299" y1="175.522" y2="175.522"/><text fill="#000000" font-family="sans-serif" font-size="6.5" font-weight="bold" lengthAdjust="spacing" textLength="3.615" x="16.4482" y="172.8906">7</text><text fill="#000000" font-family="sans-serif" font-size="6.5" lengthAdjust="spacing" textLength="102.9717" x="22.0632" y="172.8906">HTTP POST /queue/produceQueue</text><polygon fill="#181818" points="353.991,189.2278,358.991,191.2278,353.991,193.2278,355.991,191.2278" style="stroke:#181818;stroke-width:0.5;"/><line style="stroke:#181818;stroke-width:0.5;" x1="160.6299" x2="356.991" y1="191.2278" y2="191.2278"/><text fill="#000000" font-family="sans-serif" font-size="6.5" font-weight="bold" lengthAdjust="spacing" textLength="3.615" x="164.1299" y="188.5964">8</text><text fill="#000000" font-family="sans-serif" font-size="6.5" lengthAdjust="spacing" textLength="131.1711" x="169.7449" y="188.5964">produceQueue(ProduceQueueRequest body)</text><polygon fill="#181818" points="615.4924,204.9336,620.4924,206.9336,615.4924,208.9336,617.4924,206.9336" style="stroke:#181818;stroke-width:0.5;"/><line style="stroke:#181818;stroke-width:0.5;" x1="359.991" x2="618.4924" y1="206.9336" y2="206.9336"/><text fill="#000000" font-family="sans-serif" font-size="6.5" font-weight="bold" lengthAdjust="spacing" textLength="3.615" x="363.491" y="204.3022">9</text><text fill="#000000" font-family="sans-serif" font-size="6.5" lengthAdjust="spacing" textLength="174.5161" x="369.106" y="204.3022">produceQueue(queueName, deliveryMode, message, count)</text><polygon fill="#181818" points="876.9939,220.6394,881.9939,222.6394,876.9939,224.6394,878.9939,222.6394" style="stroke:#181818;stroke-width:0.5;"/><line style="stroke:#181818;stroke-width:0.5;" x1="621.4924" x2="879.9939" y1="222.6394" y2="222.6394"/><text fill="#000000" font-family="sans-serif" font-size="6.5" font-weight="bold" lengthAdjust="spacing" textLength="7.23" x="624.9924" y="220.0081">10</text><text fill="#000000" font-family="sans-serif" font-size="6.5" lengthAdjust="spacing" textLength="174.5161" x="634.2224" y="220.0081">produceQueue(queueName, deliveryMode, message, count)</text><polygon fill="#181818" points="1214.0129,236.3452,1219.0129,238.3452,1214.0129,240.3452,1216.0129,238.3452" style="stroke:#181818;stroke-width:0.5;"/><line style="stroke:#181818;stroke-width:0.5;" x1="882.9939" x2="1217.0129" y1="238.3452" y2="238.3452"/><text fill="#000000" font-family="sans-serif" font-size="6.5" font-weight="bold" lengthAdjust="spacing" textLength="7.23" x="886.4939" y="235.7139">11</text><text fill="#000000" font-family="sans-serif" font-size="6.5" lengthAdjust="spacing" textLength="34.3059" x="895.7239" y="235.7139">&#49464;&#49496; &#54876;&#49457;&#54868;</text><polygon fill="#181818" points="1283.4265,252.051,1288.4265,254.051,1283.4265,256.051,1285.4265,254.051" style="stroke:#181818;stroke-width:0.5;"/><line style="stroke:#181818;stroke-width:0.5;" x1="882.9939" x2="1286.4265" y1="254.051" y2="254.051"/><text fill="#000000" font-family="sans-serif" font-size="6.5" font-weight="bold" lengthAdjust="spacing" textLength="7.23" x="886.4939" y="251.4197">12</text><text fill="#000000" font-family="sans-serif" font-size="6.5" lengthAdjust="spacing" textLength="58.1636" x="895.7239" y="251.4197">send(XMLMessage)</text><polygon fill="#181818" points="1550.7273,267.7568,1555.7273,269.7568,1550.7273,271.7568,1552.7273,269.7568" style="stroke:#181818;stroke-width:0.5;"/><line style="stroke:#181818;stroke-width:0.5;" x1="1294.4265" x2="1553.7273" y1="269.7568" y2="269.7568"/><text fill="#000000" font-family="sans-serif" font-size="6.5" font-weight="bold" lengthAdjust="spacing" textLength="7.23" x="1297.9265" y="267.1255">13</text><text fill="#000000" font-family="sans-serif" font-size="6.5" lengthAdjust="spacing" textLength="34.3059" x="1307.1565" y="267.1255">&#47700;&#49884;&#51648; &#48156;&#54665;</text><polygon fill="#181818" points="1297.4265,283.4626,1292.4265,285.4626,1297.4265,287.4626,1295.4265,285.4626" style="stroke:#181818;stroke-width:0.5;"/><line style="stroke:#181818;stroke-width:0.5;stroke-dasharray:2.0,2.0;" x1="1294.4265" x2="1558.7273" y1="285.4626" y2="285.4626"/><text fill="#000000" font-family="sans-serif" font-size="6.5" font-weight="bold" lengthAdjust="spacing" textLength="7.23" x="1300.4265" y="282.8313">14</text><text fill="#000000" font-family="sans-serif" font-size="6.5" lengthAdjust="spacing" textLength="36.4895" x="1309.6565" y="282.8313">Publish ACK</text><rect fill="#EEEEEE" height="1.5" style="stroke:#EEEEEE;stroke-width:0.5;" width="1597.1323" x="0" y="300.3156"/><line style="stroke:#000000;stroke-width:0.5;" x1="0" x2="1597.1323" y1="300.3156" y2="300.3156"/><line style="stroke:#000000;stroke-width:0.5;" x1="0" x2="1597.1323" y1="301.8156" y2="301.8156"/><rect fill="#EEEEEE" height="12.7058" style="stroke:#000000;stroke-width:1.0;" width="86.4409" x="755.3457" y="294.4626"/><text fill="#000000" font-family="sans-serif" font-size="6.5" font-weight="bold" lengthAdjust="spacing" textLength="77.635" x="758.3457" y="303.5371">Topic-to-Queue &#47588;&#54609; &#49373;&#49328;</text><polygon fill="#181818" points="154.6299,321.8743,159.6299,323.8743,154.6299,325.8743,156.6299,323.8743" style="stroke:#181818;stroke-width:0.5;"/><line style="stroke:#181818;stroke-width:0.5;" x1="12.9482" x2="157.6299" y1="323.8743" y2="323.8743"/><text fill="#000000" font-family="sans-serif" font-size="6.5" font-weight="bold" lengthAdjust="spacing" textLength="7.23" x="16.4482" y="321.2429">15</text><text fill="#000000" font-family="sans-serif" font-size="6.5" lengthAdjust="spacing" textLength="126.4517" x="25.6782" y="321.2429">HTTP POST /queue/produceTopicToQueue</text><polygon fill="#181818" points="353.991,337.5801,358.991,339.5801,353.991,341.5801,355.991,339.5801" style="stroke:#181818;stroke-width:0.5;"/><line style="stroke:#181818;stroke-width:0.5;" x1="160.6299" x2="356.991" y1="339.5801" y2="339.5801"/><text fill="#000000" font-family="sans-serif" font-size="6.5" font-weight="bold" lengthAdjust="spacing" textLength="7.23" x="164.1299" y="336.9487">16</text><text fill="#000000" font-family="sans-serif" font-size="6.5" lengthAdjust="spacing" textLength="178.1311" x="173.3599" y="336.9487">produceTopicToQueue(ProduceTopicToQueueRequest body)</text><polygon fill="#181818" points="615.4924,353.2859,620.4924,355.2859,615.4924,357.2859,617.4924,355.2859" style="stroke:#181818;stroke-width:0.5;"/><line style="stroke:#181818;stroke-width:0.5;" x1="359.991" x2="618.4924" y1="355.2859" y2="355.2859"/><text fill="#000000" font-family="sans-serif" font-size="6.5" font-weight="bold" lengthAdjust="spacing" textLength="7.23" x="363.491" y="352.6545">17</text><text fill="#000000" font-family="sans-serif" font-size="6.5" lengthAdjust="spacing" textLength="240.2715" x="372.7209" y="352.6545">produceTopicToQueueMapping(topic, queueName, deliveryMode, message, count)</text><polygon fill="#181818" points="876.9939,368.9917,881.9939,370.9917,876.9939,372.9917,878.9939,370.9917" style="stroke:#181818;stroke-width:0.5;"/><line style="stroke:#181818;stroke-width:0.5;" x1="621.4924" x2="879.9939" y1="370.9917" y2="370.9917"/><text fill="#000000" font-family="sans-serif" font-size="6.5" font-weight="bold" lengthAdjust="spacing" textLength="7.23" x="624.9924" y="368.3604">18</text><text fill="#000000" font-family="sans-serif" font-size="6.5" lengthAdjust="spacing" textLength="240.2715" x="634.2224" y="368.3604">produceTopicToQueueMapping(topic, queueName, deliveryMode, message, count)</text><polygon fill="#181818" points="1214.0129,384.6975,1219.0129,386.6975,1214.0129,388.6975,1216.0129,386.6975" style="stroke:#181818;stroke-width:0.5;"/><line style="stroke:#181818;stroke-width:0.5;" x1="882.9939" x2="1217.0129" y1="386.6975" y2="386.6975"/><text fill="#000000" font-family="sans-serif" font-size="6.5" font-weight="bold" lengthAdjust="spacing" textLength="7.23" x="886.4939" y="384.0662">19</text><text fill="#000000" font-family="sans-serif" font-size="6.5" lengthAdjust="spacing" textLength="34.3059" x="895.7239" y="384.0662">&#49464;&#49496; &#54876;&#49457;&#54868;</text><polygon fill="#181818" points="1283.4265,400.4033,1288.4265,402.4033,1283.4265,404.4033,1285.4265,402.4033" style="stroke:#181818;stroke-width:0.5;"/><line style="stroke:#181818;stroke-width:0.5;" x1="882.9939" x2="1286.4265" y1="402.4033" y2="402.4033"/><text fill="#000000" font-family="sans-serif" font-size="6.5" font-weight="bold" lengthAdjust="spacing" textLength="7.23" x="886.4939" y="399.772">20</text><text fill="#000000" font-family="sans-serif" font-size="6.5" lengthAdjust="spacing" textLength="58.1636" x="895.7239" y="399.772">send(XMLMessage)</text><polygon fill="#181818" points="1550.7273,416.1091,1555.7273,418.1091,1550.7273,420.1091,1552.7273,418.1091" style="stroke:#181818;stroke-width:0.5;"/><line style="stroke:#181818;stroke-width:0.5;" x1="1294.4265" x2="1553.7273" y1="418.1091" y2="418.1091"/><text fill="#000000" font-family="sans-serif" font-size="6.5" font-weight="bold" lengthAdjust="spacing" textLength="7.23" x="1297.9265" y="415.4778">21</text><text fill="#000000" font-family="sans-serif" font-size="6.5" lengthAdjust="spacing" textLength="34.3059" x="1307.1565" y="415.4778">&#47700;&#49884;&#51648; &#48156;&#54665;</text><polygon fill="#181818" points="1297.4265,431.8149,1292.4265,433.8149,1297.4265,435.8149,1295.4265,433.8149" style="stroke:#181818;stroke-width:0.5;"/><line style="stroke:#181818;stroke-width:0.5;stroke-dasharray:2.0,2.0;" x1="1294.4265" x2="1558.7273" y1="433.8149" y2="433.8149"/><text fill="#000000" font-family="sans-serif" font-size="6.5" font-weight="bold" lengthAdjust="spacing" textLength="7.23" x="1300.4265" y="431.1836">22</text><text fill="#000000" font-family="sans-serif" font-size="6.5" lengthAdjust="spacing" textLength="36.4895" x="1309.6565" y="431.1836">Publish ACK</text><rect fill="#EEEEEE" height="1.5" style="stroke:#EEEEEE;stroke-width:0.5;" width="1597.1323" x="0" y="448.6678"/><line style="stroke:#000000;stroke-width:0.5;" x1="0" x2="1597.1323" y1="448.6678" y2="448.6678"/><line style="stroke:#000000;stroke-width:0.5;" x1="0" x2="1597.1323" y1="450.1678" y2="450.1678"/><rect fill="#EEEEEE" height="12.7058" style="stroke:#000000;stroke-width:1.0;" width="200.9431" x="698.0946" y="442.8149"/><text fill="#000000" font-family="sans-serif" font-size="6.5" font-weight="bold" lengthAdjust="spacing" textLength="192.1372" x="701.0946" y="451.8894">Queue &#47700;&#49884;&#51648; &#49548;&#48708;(Consume Message from Queue) &#50892;&#53356;&#54540;&#47196;&#50864;</text><polygon fill="#181818" points="154.6299,470.2266,159.6299,472.2266,154.6299,474.2266,156.6299,472.2266" style="stroke:#181818;stroke-width:0.5;"/><line style="stroke:#181818;stroke-width:0.5;" x1="12.9482" x2="157.6299" y1="472.2266" y2="472.2266"/><text fill="#000000" font-family="sans-serif" font-size="6.5" font-weight="bold" lengthAdjust="spacing" textLength="7.23" x="16.4482" y="469.5952">23</text><text fill="#000000" font-family="sans-serif" font-size="6.5" lengthAdjust="spacing" textLength="113.0771" x="25.6782" y="469.5952">HTTP POST /queue/connect/consumer</text><polygon fill="#181818" points="954.3643,485.9324,959.3643,487.9324,954.3643,489.9324,956.3643,487.9324" style="stroke:#181818;stroke-width:0.5;"/><line style="stroke:#181818;stroke-width:0.5;" x1="160.6299" x2="957.3643" y1="487.9324" y2="487.9324"/><text fill="#000000" font-family="sans-serif" font-size="6.5" font-weight="bold" lengthAdjust="spacing" textLength="7.23" x="164.1299" y="485.301">24</text><text fill="#000000" font-family="sans-serif" font-size="6.5" lengthAdjust="spacing" textLength="27.095" x="173.3599" y="485.301">connect()</text><polygon fill="#181818" points="1044.1829,501.6382,1049.1829,503.6382,1044.1829,505.6382,1046.1829,503.6382" style="stroke:#181818;stroke-width:0.5;"/><line style="stroke:#181818;stroke-width:0.5;" x1="960.3643" x2="1047.1829" y1="503.6382" y2="503.6382"/><text fill="#000000" font-family="sans-serif" font-size="6.5" font-weight="bold" lengthAdjust="spacing" textLength="7.23" x="963.8643" y="501.0068">25</text><text fill="#000000" font-family="sans-serif" font-size="6.5" lengthAdjust="spacing" textLength="46.6108" x="973.0942" y="501.0068">connectQueue()</text><polygon fill="#181818" points="1151.0459,517.344,1156.0459,519.344,1151.0459,521.344,1153.0459,519.344" style="stroke:#181818;stroke-width:0.5;"/><line style="stroke:#181818;stroke-width:0.5;" x1="1050.1829" x2="1154.0459" y1="519.344" y2="519.344"/><text fill="#000000" font-family="sans-serif" font-size="6.5" font-weight="bold" lengthAdjust="spacing" textLength="7.23" x="1053.6829" y="516.7126">26</text><text fill="#000000" font-family="sans-serif" font-size="6.5" lengthAdjust="spacing" textLength="27.095" x="1062.9128" y="516.7126">connect()</text><polygon fill="#181818" points="1211.5129,533.0498,1216.5129,535.0498,1211.5129,537.0498,1213.5129,535.0498" style="stroke:#181818;stroke-width:0.5;"/><line style="stroke:#181818;stroke-width:0.5;" x1="1157.0459" x2="1214.5129" y1="535.0498" y2="535.0498"/><text fill="#000000" font-family="sans-serif" font-size="6.5" font-weight="bold" lengthAdjust="spacing" textLength="7.23" x="1160.5459" y="532.4185">27</text><text fill="#000000" font-family="sans-serif" font-size="6.5" lengthAdjust="spacing" textLength="34.3059" x="1169.7759" y="532.4185">&#49464;&#49496; &#54876;&#49457;&#54868;</text><polygon fill="#181818" points="1162.5459,548.7556,1157.5459,550.7556,1162.5459,552.7556,1160.5459,550.7556" style="stroke:#181818;stroke-width:0.5;"/><line style="stroke:#181818;stroke-width:0.5;stroke-dasharray:2.0,2.0;" x1="1159.5459" x2="1219.5129" y1="550.7556" y2="550.7556"/><text fill="#000000" font-family="sans-serif" font-size="6.5" font-weight="bold" lengthAdjust="spacing" textLength="7.23" x="1165.5459" y="548.1243">28</text><text fill="#000000" font-family="sans-serif" font-size="6.5" lengthAdjust="spacing" textLength="27.8059" x="1174.7759" y="548.1243">&#50672;&#44208; &#50756;&#47308;</text><polygon fill="#181818" points="154.6299,564.4614,159.6299,566.4614,154.6299,568.4614,156.6299,566.4614" style="stroke:#181818;stroke-width:0.5;"/><line style="stroke:#181818;stroke-width:0.5;" x1="12.9482" x2="157.6299" y1="566.4614" y2="566.4614"/><text fill="#000000" font-family="sans-serif" font-size="6.5" font-weight="bold" lengthAdjust="spacing" textLength="7.23" x="16.4482" y="563.8301">29</text><text fill="#000000" font-family="sans-serif" font-size="6.5" lengthAdjust="spacing" textLength="105.8567" x="25.6782" y="563.8301">HTTP POST /queue/consumeQueue</text><polygon fill="#181818" points="954.3643,580.1672,959.3643,582.1672,954.3643,584.1672,956.3643,582.1672" style="stroke:#181818;stroke-width:0.5;"/><line style="stroke:#181818;stroke-width:0.5;" x1="160.6299" x2="957.3643" y1="582.1672" y2="582.1672"/><text fill="#000000" font-family="sans-serif" font-size="6.5" font-weight="bold" lengthAdjust="spacing" textLength="7.23" x="164.1299" y="579.5359">30</text><text fill="#000000" font-family="sans-serif" font-size="6.5" lengthAdjust="spacing" textLength="137.6648" x="173.3599" y="579.5359">consumeQueue(ConsumeQueueRequest body)</text><polygon fill="#181818" points="1044.1829,595.873,1049.1829,597.873,1044.1829,599.873,1046.1829,597.873" style="stroke:#181818;stroke-width:0.5;"/><line style="stroke:#181818;stroke-width:0.5;" x1="960.3643" x2="1047.1829" y1="597.873" y2="597.873"/><text fill="#000000" font-family="sans-serif" font-size="6.5" font-weight="bold" lengthAdjust="spacing" textLength="7.23" x="963.8643" y="595.2417">31</text><text fill="#000000" font-family="sans-serif" font-size="6.5" lengthAdjust="spacing" textLength="64.3145" x="973.0942" y="595.2417">consumeQueue(body)</text><polygon fill="#181818" points="1151.0459,611.5789,1156.0459,613.5789,1151.0459,615.5789,1153.0459,613.5789" style="stroke:#181818;stroke-width:0.5;"/><line style="stroke:#181818;stroke-width:0.5;" x1="1050.1829" x2="1154.0459" y1="613.5789" y2="613.5789"/><text fill="#000000" font-family="sans-serif" font-size="6.5" font-weight="bold" lengthAdjust="spacing" textLength="7.23" x="1053.6829" y="610.9475">32</text><text fill="#000000" font-family="sans-serif" font-size="6.5" lengthAdjust="spacing" textLength="85.6331" x="1062.9128" y="610.9475">consumeQueue(queueName)</text><polygon fill="#181818" points="1368.5693,627.2847,1373.5693,629.2847,1368.5693,631.2847,1370.5693,629.2847" style="stroke:#181818;stroke-width:0.5;"/><line style="stroke:#181818;stroke-width:0.5;" x1="1157.0459" x2="1371.5693" y1="629.2847" y2="629.2847"/><text fill="#000000" font-family="sans-serif" font-size="6.5" font-weight="bold" lengthAdjust="spacing" textLength="7.23" x="1160.5459" y="626.6533">33</text><text fill="#000000" font-family="sans-serif" font-size="6.5" lengthAdjust="spacing" textLength="16.9705" x="1169.7759" y="626.6533">start()</text><polygon fill="#181818" points="1385.0693,642.9905,1380.0693,644.9905,1385.0693,646.9905,1383.0693,644.9905" style="stroke:#181818;stroke-width:0.5;"/><line style="stroke:#181818;stroke-width:0.5;" x1="1382.0693" x2="1558.7273" y1="644.9905" y2="644.9905"/><text fill="#000000" font-family="sans-serif" font-size="6.5" font-weight="bold" lengthAdjust="spacing" textLength="7.23" x="1388.0693" y="642.3591">34</text><text fill="#000000" font-family="sans-serif" font-size="6.5" lengthAdjust="spacing" textLength="34.3059" x="1397.2993" y="642.3591">&#47700;&#49884;&#51648; &#48156;&#54665;</text><polygon fill="#181818" points="1162.5459,658.6963,1157.5459,660.6963,1162.5459,662.6963,1160.5459,660.6963" style="stroke:#181818;stroke-width:0.5;"/><line style="stroke:#181818;stroke-width:0.5;" x1="1159.5459" x2="1374.0693" y1="660.6963" y2="660.6963"/><text fill="#000000" font-family="sans-serif" font-size="6.5" font-weight="bold" lengthAdjust="spacing" textLength="7.23" x="1165.5459" y="658.0649">35</text><text fill="#000000" font-family="sans-serif" font-size="6.5" lengthAdjust="spacing" textLength="49.1118" x="1174.7759" y="658.0649">&#47700;&#49884;&#51648; &#49548;&#48708; &#50756;&#47308;</text><polygon fill="#181818" points="1464.9673,674.4021,1469.9673,676.4021,1464.9673,678.4021,1466.9673,676.4021" style="stroke:#181818;stroke-width:0.5;"/><line style="stroke:#181818;stroke-width:0.5;" x1="1157.0459" x2="1467.9673" y1="676.4021" y2="676.4021"/><text fill="#000000" font-family="sans-serif" font-size="6.5" font-weight="bold" lengthAdjust="spacing" textLength="7.23" x="1160.5459" y="673.7708">36</text><text fill="#000000" font-family="sans-serif" font-size="6.5" lengthAdjust="spacing" textLength="59.249" x="1169.7759" y="673.7708">broadcast(message)</text><polygon fill="#181818" points="166.1299,690.1079,161.1299,692.1079,166.1299,694.1079,164.1299,692.1079" style="stroke:#181818;stroke-width:0.5;"/><line style="stroke:#181818;stroke-width:0.5;" x1="163.1299" x2="1470.4673" y1="692.1079" y2="692.1079"/><text fill="#000000" font-family="sans-serif" font-size="6.5" font-weight="bold" lengthAdjust="spacing" textLength="7.23" x="169.1299" y="689.4766">37</text><text fill="#000000" font-family="sans-serif" font-size="6.5" lengthAdjust="spacing" textLength="69.3481" x="178.3599" y="689.4766">WebSocket &#47700;&#49884;&#51648; &#51204;&#49569;</text><!--SRC=[rLLDYzD06BxdLmphfGkjlIzKq46e7z7KLDRhD1btmoQPx6HIt9iVTK7iHQWVrGek2elWeNhIlsIJ_-1CCabdqjQ5NI_UCk_plDyFRr32I9W40qmD0pcCK01z3uSCe1X08qAKUOuN8MxOya8NFxgypm9_Iw3tRsXmBy49jYXn4mT34Z9AV1zJGRHwS2FJndJeERYWsHjfUPoUjOhpJ74Ir1B2TGabKqa8roMKj2AX7kOcj4tBnd7iaL30klS3yxR9CRIdrMnQ6qXg7bFF8ncxU60Jvm2pBWfTsTcktTLtOXCVyMwk3yNAhb5oW6c-dE8JN4A72JACJgTe3Yo-JjANi_JqCKYVVKoVpXkorZ8dOAHWReFqmpXxyYsRZ1Sdi_Jz77Gw1WIjAtpjO0Tq-tqBM7VjFcWV2dhR8M687TQEPEy6ft4oNprdIx2nROXtRhPhPbkOUvPcvKzkr9bSejuGCSo7prrAd_Jj_FUFEKYdeyNdiU5YXVMtecMnUSDQmIfGZYX_tCFSCsPWGDoZMZUQJnx_3Wfm4xZOzuQO7fd4vQ-Wc7EJjvI4JE_yV16MKqf7FzFdxq0sdQMZxzbq8Y5Jn8vnw3QMwbC6oHLgvZmfcHr598lvB7lpOiajA8PajihWLZBmlNWVN8MtrE5BjcBXkOGM-oJod1OZBIdAqo_PwrTIaMVeJCueZz0d6pUdukK2LTlPUrJP9eeYBznhC65hWeiizr-4_Gytld9zZiUBNwE6F8BLzNb8IN2n- -F8iof50Mlt1nQRXkhzAKGYi69RkaVXi7ROgxS8dlyMoS9LHLV5Lq0vi3KQhdUsz2bnhRibNCckxDKKb9ZnlunwR_a_gbA1vAoeneHLYlggotaKAVXlZ7C6b23NGJ5h1AL61L2EgFh_gS4-ZTBZ4qrWy0y0]--></g></svg>